<?xml version="1.0" encoding="UTF-8" standalone="no"?>
<!-- Created with Inkscape (http://www.inkscape.org/) -->

<svg
   xmlns:dc="http://purl.org/dc/elements/1.1/"
   xmlns:cc="http://creativecommons.org/ns#"
   xmlns:rdf="http://www.w3.org/1999/02/22-rdf-syntax-ns#"
   xmlns:svg="http://www.w3.org/2000/svg"
   xmlns="http://www.w3.org/2000/svg"
   xmlns:sodipodi="http://sodipodi.sourceforge.net/DTD/sodipodi-0.dtd"
   xmlns:inkscape="http://www.inkscape.org/namespaces/inkscape"
   width="210mm"
   height="297mm"
   viewBox="0 0 210 297"
   version="1.1"
   id="svg8"
   sodipodi:docname="agenda.svg"
   inkscape:version="0.92.1 r15371">
  <defs
     id="defs2">
    <linearGradient
       id="linearGradient4056">
      <stop
         id="stop4058"
         offset="0"
         style="stop-color:#828282;stop-opacity:1;" />
      <stop
         style="stop-color:#000000;stop-opacity:1;"
         offset="1"
         id="stop4182" />
      <stop
         id="stop4060"
         offset="1"
         style="stop-color:#000000;stop-opacity:1;" />
    </linearGradient>
  </defs>
  <sodipodi:namedview
     id="base"
     pagecolor="#ffffff"
     bordercolor="#666666"
     borderopacity="1.0"
     inkscape:pageopacity="0.0"
     inkscape:pageshadow="2"
     inkscape:zoom="1"
     inkscape:cx="541.30739"
     inkscape:cy="689.85793"
     inkscape:document-units="mm"
     inkscape:current-layer="layer1"
     showgrid="false"
     inkscape:window-width="1920"
     inkscape:window-height="1018"
     inkscape:window-x="-8"
     inkscape:window-y="-8"
     inkscape:window-maximized="1"
     inkscape:snap-grids="true">
    <inkscape:grid
       type="xygrid"
       id="grid4485"
       spacingx="0.26458333"
       spacingy="0.26458333" />
  </sodipodi:namedview>
  <metadata
     id="metadata5">
    <rdf:RDF>
      <cc:Work
         rdf:about="">
        <dc:format>image/svg+xml</dc:format>
        <dc:type
           rdf:resource="http://purl.org/dc/dcmitype/StillImage" />
        <dc:title></dc:title>
      </cc:Work>
    </rdf:RDF>
  </metadata>
  <g
     inkscape:label="Ebene 1"
     inkscape:groupmode="layer"
     id="layer1">
    <g
       id="g4571"
       transform="translate(-26.458333,-18.520833)">
      <path
         sodipodi:nodetypes="ccccccc"
         inkscape:connector-curvature="0"
         id="path4487"
         d="m 29.104166,21.833331 5.291668,10e-7 7.9375,21.166666 7.9375,-21.166666 5.291665,-10e-7 -13.229165,34.395834 z"
         style="fill:#000000;fill-opacity:1;fill-rule:evenodd;stroke:none;stroke-width:0.5;stroke-linecap:butt;stroke-linejoin:miter;stroke-miterlimit:4;stroke-dasharray:none;stroke-opacity:1" />
      <path
         style="fill:#000000;fill-opacity:1;fill-rule:evenodd;stroke:none;stroke-width:0.5;stroke-linecap:butt;stroke-linejoin:miter;stroke-miterlimit:4;stroke-dasharray:none;stroke-opacity:1"
         d="m 47.624999,56.229165 5.291668,-1e-6 7.9375,-21.166666 7.9375,21.166666 5.291665,1e-6 -13.229165,-34.395834 z"
         id="path4491"
         inkscape:connector-curvature="0"
         sodipodi:nodetypes="ccccccc" />
      <path
         sodipodi:nodetypes="cccc"
         inkscape:connector-curvature="0"
         id="path4493"
         d="M 92.604165,21.833331 79.375,56.229165 66.145832,21.833331 Z"
         style="fill:#000000;fill-opacity:1;fill-rule:evenodd;stroke:none;stroke-width:0.5;stroke-linecap:butt;stroke-linejoin:miter;stroke-miterlimit:4;stroke-dasharray:none;stroke-opacity:1" />
      <path
         sodipodi:nodetypes="ccccc"
         inkscape:connector-curvature="0"
         id="path4495"
         d="m 87.719551,48.291665 -3.052884,7.9375 h 29.104163 v -7.9375 z"
         style="fill:#000000;fill-opacity:1;fill-rule:evenodd;stroke:none;stroke-width:0.1153846;stroke-linecap:butt;stroke-linejoin:miter;stroke-miterlimit:4;stroke-dasharray:none;stroke-opacity:1" />
      <path
         style="fill:#000000;fill-opacity:1;fill-rule:evenodd;stroke:none;stroke-width:0.1153846;stroke-linecap:butt;stroke-linejoin:miter;stroke-miterlimit:4;stroke-dasharray:none;stroke-opacity:1"
         d="m 92.604167,35.062498 -3.052884,7.9375 h 24.219547 v -7.9375 z"
         id="path4500"
         inkscape:connector-curvature="0"
         sodipodi:nodetypes="ccccc" />
      <path
         sodipodi:nodetypes="ccccc"
         inkscape:connector-curvature="0"
         id="path4502"
         d="m 97.773718,21.833332 -3.052884,7.9375 h 19.049996 v -7.9375 z"
         style="fill:#000000;fill-opacity:1;fill-rule:evenodd;stroke:none;stroke-width:0.1153846;stroke-linecap:butt;stroke-linejoin:miter;stroke-miterlimit:4;stroke-dasharray:none;stroke-opacity:1" />
    </g>
    <path
       style="fill:#000000;fill-opacity:1;fill-rule:evenodd;stroke:none;stroke-width:0.5;stroke-linecap:butt;stroke-linejoin:miter;stroke-miterlimit:4;stroke-dasharray:none;stroke-opacity:1"
       d="m 10.583334,114.4375 2.645833,0 2.645835,0 7.937498,-23.812501 7.937501,23.812501 2.645832,0 2.645833,0 L 23.8125,77.395832 Z"
       id="path4557"
       inkscape:connector-curvature="0"
       sodipodi:nodetypes="ccccccccc" />
    <path
       sodipodi:nodetypes="ccccccc"
       inkscape:connector-curvature="0"
       id="path4561"
       d="m 71.4375,77.395833 -1.322918,2.645836 1.322918,2.64583 H 95.25 L 96.572915,80.041669 95.25,77.395833 Z"
       style="fill:#000000;fill-opacity:1;fill-rule:evenodd;stroke:none;stroke-width:0.1153846;stroke-linecap:butt;stroke-linejoin:miter;stroke-miterlimit:4;stroke-dasharray:none;stroke-opacity:1" />
    <path
       style="fill:#000000;fill-opacity:1;fill-rule:evenodd;stroke:none;stroke-width:0.1153846;stroke-linecap:butt;stroke-linejoin:miter;stroke-miterlimit:4;stroke-dasharray:none;stroke-opacity:1"
       d="m 71.4375,109.14583 -1.322918,2.64584 1.322918,2.64583 H 95.25 L 96.572915,111.79167 95.25,109.14583 Z"
       id="path4579"
       inkscape:connector-curvature="0"
       sodipodi:nodetypes="ccccccc" />
    <path
       sodipodi:nodetypes="ccccccc"
       inkscape:connector-curvature="0"
       id="path4581"
       d="m 71.4375,93.270833 -1.322918,2.645836 1.322918,2.64583 H 95.25 L 96.572915,95.916669 95.25,93.270833 Z"
       style="fill:#000000;fill-opacity:1;fill-rule:evenodd;stroke:none;stroke-width:0.1153846;stroke-linecap:butt;stroke-linejoin:miter;stroke-miterlimit:4;stroke-dasharray:none;stroke-opacity:1" />
    <path
       style="fill:#000000;fill-opacity:1;fill-rule:evenodd;stroke:none;stroke-width:0.26458332px;stroke-linecap:butt;stroke-linejoin:miter;stroke-opacity:1"
       d="m 100.54166,114.4375 2.64584,0 2.64583,0 V 87.979165 l 15.875,26.458335 H 127 l -1e-5,-37.041667 -2.64582,3e-6 -2.64585,-3e-6 1e-5,26.458337 -15.875,-26.458338 h -5.29167 z"
       id="path4585"
       inkscape:connector-curvature="0"
       sodipodi:nodetypes="ccccccccccccc" />
    <path
       sodipodi:nodetypes="ccccccccc"
       inkscape:connector-curvature="0"
       id="path4587"
       d="m 158.75,114.4375 2.64583,0 2.64584,0 7.9375,-23.8125 7.9375,23.8125 2.64583,0 2.64584,0 -13.22917,-37.041667 z"
       style="fill:#000000;fill-opacity:1;fill-rule:evenodd;stroke:none;stroke-width:0.5;stroke-linecap:butt;stroke-linejoin:miter;stroke-miterlimit:4;stroke-dasharray:none;stroke-opacity:1" />
    <path
       style="fill:#000000;fill-opacity:1;fill-rule:evenodd;stroke:none;stroke-width:0.26458332px;stroke-linecap:butt;stroke-linejoin:miter;stroke-opacity:1"
       d="m 66.145832,77.395831 -21.166665,10e-7 -5.291667,5.291667 v 26.458331 l 5.291667,5.29167 h 15.875 l 5.291667,-5.29167 -2e-6,-15.874999 H 52.916666 l 1.322917,2.645838 -1.322917,2.645828 h 7.9375 l 10e-7,7.937503 -2.645833,2.64583 H 47.625 L 44.979167,106.5 V 85.333332 l 2.645833,-2.645833 18.520832,-10e-7 -1.322916,-2.645829 z"
       id="path4503"
       inkscape:connector-curvature="0"
       sodipodi:nodetypes="ccccccccccccccccccccc" />
    <path
       style="fill:#000000;fill-rule:evenodd;stroke:none;stroke-width:0.99999994px;stroke-linecap:butt;stroke-linejoin:miter;stroke-opacity:1;fill-opacity:1"
       d="M 500 292.51953 L 500 432.51953 L 570 432.51953 L 590 412.51953 L 590 312.51953 L 570 292.51953 L 500 292.51953 z M 520 312.51953 L 560 312.51953 L 571.42773 326.80469 L 571.42773 398.23438 L 560 412.51953 L 520 412.51953 L 520 312.51953 z "
       id="path4505"
       transform="scale(0.26458333)" />
  </g>
</svg>
