<?xml version="1.0" encoding="UTF-8" standalone="no"?>
<!-- Created with Inkscape (http://www.inkscape.org/) -->

<svg
   xmlns:dc="http://purl.org/dc/elements/1.1/"
   xmlns:cc="http://creativecommons.org/ns#"
   xmlns:rdf="http://www.w3.org/1999/02/22-rdf-syntax-ns#"
   xmlns:svg="http://www.w3.org/2000/svg"
   xmlns="http://www.w3.org/2000/svg"
   xmlns:sodipodi="http://sodipodi.sourceforge.net/DTD/sodipodi-0.dtd"
   xmlns:inkscape="http://www.inkscape.org/namespaces/inkscape"
   width="210mm"
   height="297mm"
   viewBox="0 0 210 297"
   version="1.1"
   id="svg8"
   sodipodi:docname="agenda.svg"
   inkscape:version="0.92.1 r15371">
  <defs
     id="defs2">
    <linearGradient
       id="linearGradient4056">
      <stop
         id="stop4058"
         offset="0"
         style="stop-color:#828282;stop-opacity:1;" />
      <stop
         style="stop-color:#000000;stop-opacity:1;"
         offset="1"
         id="stop4182" />
      <stop
         id="stop4060"
         offset="1"
         style="stop-color:#000000;stop-opacity:1;" />
    </linearGradient>
  </defs>
  <sodipodi:namedview
     id="base"
     pagecolor="#ffffff"
     bordercolor="#666666"
     borderopacity="1.0"
     inkscape:pageopacity="0.0"
     inkscape:pageshadow="2"
     inkscape:zoom="1"
     inkscape:cx="492.1917"
     inkscape:cy="519.45813"
     inkscape:document-units="mm"
     inkscape:current-layer="layer1"
     showgrid="false"
     inkscape:window-width="1920"
     inkscape:window-height="1018"
     inkscape:window-x="-8"
     inkscape:window-y="-8"
     inkscape:window-maximized="1"
     inkscape:snap-grids="true">
    <inkscape:grid
       type="xygrid"
       id="grid4485"
       spacingx="0.26458333"
       spacingy="0.26458333" />
  </sodipodi:namedview>
  <metadata
     id="metadata5">
    <rdf:RDF>
      <cc:Work
         rdf:about="">
        <dc:format>image/svg+xml</dc:format>
        <dc:type
           rdf:resource="http://purl.org/dc/dcmitype/StillImage" />
        <dc:title />
      </cc:Work>
    </rdf:RDF>
  </metadata>
  <g
     inkscape:label="Ebene 1"
     inkscape:groupmode="layer"
     id="layer1">
    <g
       id="g4571"
       transform="translate(-26.458333,-18.520833)">
      <path
         sodipodi:nodetypes="ccccccc"
         inkscape:connector-curvature="0"
         id="path4487"
         d="m 29.104166,21.833331 5.291668,10e-7 7.9375,21.166666 7.9375,-21.166666 5.291665,-10e-7 -13.229165,34.395834 z"
         style="fill:#000000;fill-opacity:1;fill-rule:evenodd;stroke:none;stroke-width:0.5;stroke-linecap:butt;stroke-linejoin:miter;stroke-miterlimit:4;stroke-dasharray:none;stroke-opacity:1" />
      <path
         style="fill:#000000;fill-opacity:1;fill-rule:evenodd;stroke:none;stroke-width:0.5;stroke-linecap:butt;stroke-linejoin:miter;stroke-miterlimit:4;stroke-dasharray:none;stroke-opacity:1"
         d="m 47.624999,56.229165 5.291668,-1e-6 7.9375,-21.166666 7.9375,21.166666 5.291665,1e-6 -13.229165,-34.395834 z"
         id="path4491"
         inkscape:connector-curvature="0"
         sodipodi:nodetypes="ccccccc" />
      <path
         sodipodi:nodetypes="cccc"
         inkscape:connector-curvature="0"
         id="path4493"
         d="M 92.604165,21.833331 79.375,56.229165 66.145832,21.833331 Z"
         style="fill:#000000;fill-opacity:1;fill-rule:evenodd;stroke:none;stroke-width:0.5;stroke-linecap:butt;stroke-linejoin:miter;stroke-miterlimit:4;stroke-dasharray:none;stroke-opacity:1" />
      <path
         sodipodi:nodetypes="ccccc"
         inkscape:connector-curvature="0"
         id="path4495"
         d="m 87.719551,48.291665 -3.052884,7.9375 h 29.104163 v -7.9375 z"
         style="fill:#000000;fill-opacity:1;fill-rule:evenodd;stroke:none;stroke-width:0.1153846;stroke-linecap:butt;stroke-linejoin:miter;stroke-miterlimit:4;stroke-dasharray:none;stroke-opacity:1" />
      <path
         style="fill:#000000;fill-opacity:1;fill-rule:evenodd;stroke:none;stroke-width:0.1153846;stroke-linecap:butt;stroke-linejoin:miter;stroke-miterlimit:4;stroke-dasharray:none;stroke-opacity:1"
         d="m 92.604167,35.062498 -3.052884,7.9375 h 24.219547 v -7.9375 z"
         id="path4500"
         inkscape:connector-curvature="0"
         sodipodi:nodetypes="ccccc" />
      <path
         sodipodi:nodetypes="ccccc"
         inkscape:connector-curvature="0"
         id="path4502"
         d="m 97.773718,21.833332 -3.052884,7.9375 h 19.049996 v -7.9375 z"
         style="fill:#000000;fill-opacity:1;fill-rule:evenodd;stroke:none;stroke-width:0.1153846;stroke-linecap:butt;stroke-linejoin:miter;stroke-miterlimit:4;stroke-dasharray:none;stroke-opacity:1" />
    </g>
    <path
       style="fill:#000000;fill-opacity:1;fill-rule:evenodd;stroke:none;stroke-width:0.5;stroke-linecap:butt;stroke-linejoin:miter;stroke-miterlimit:4;stroke-dasharray:none;stroke-opacity:1"
       d="m 10.583334,114.4375 2.645833,1.32292 2.645835,-1.32292 7.937498,-23.812501 7.937501,23.812501 2.645832,1.32292 2.645833,-1.32292 L 23.8125,77.395832 Z"
       id="path4557"
       inkscape:connector-curvature="0"
       sodipodi:nodetypes="ccccccccc" />
    <path
       sodipodi:nodetypes="ccccccc"
       inkscape:connector-curvature="0"
       id="path4561"
       d="m 71.4375,77.395833 -1.322918,2.645836 1.322918,2.64583 H 95.25 L 96.572915,80.041669 95.25,77.395833 Z"
       style="fill:#000000;fill-opacity:1;fill-rule:evenodd;stroke:none;stroke-width:0.1153846;stroke-linecap:butt;stroke-linejoin:miter;stroke-miterlimit:4;stroke-dasharray:none;stroke-opacity:1" />
    <path
       style="fill:#000000;fill-opacity:1;fill-rule:evenodd;stroke:none;stroke-width:0.1153846;stroke-linecap:butt;stroke-linejoin:miter;stroke-miterlimit:4;stroke-dasharray:none;stroke-opacity:1"
       d="m 71.4375,109.14583 -1.322918,2.64584 1.322918,2.64583 H 95.25 L 96.572915,111.79167 95.25,109.14583 Z"
       id="path4579"
       inkscape:connector-curvature="0"
       sodipodi:nodetypes="ccccccc" />
    <path
       sodipodi:nodetypes="ccccccc"
       inkscape:connector-curvature="0"
       id="path4581"
       d="m 71.4375,93.270833 -1.322918,2.645836 1.322918,2.64583 H 95.25 L 96.572915,95.916669 95.25,93.270833 Z"
       style="fill:#000000;fill-opacity:1;fill-rule:evenodd;stroke:none;stroke-width:0.1153846;stroke-linecap:butt;stroke-linejoin:miter;stroke-miterlimit:4;stroke-dasharray:none;stroke-opacity:1" />
    <path
       style="fill:#000000;fill-opacity:1;fill-rule:evenodd;stroke:none;stroke-width:0.26458332px;stroke-linecap:butt;stroke-linejoin:miter;stroke-opacity:1"
       d="m 100.54167,113.11459 2.64584,1.32292 2.64583,-1.32292 -1e-5,-25.135425 15.875,25.135425 2.64584,1.32292 2.64583,-1.32292 0,-34.395837 -2.64582,-1.322914 -2.64585,1.322914 0,25.135417 -15.87499,-25.135417 -2.64583,-1.322913 -2.64584,1.322913 z"
       id="path4585"
       inkscape:connector-curvature="0"
       sodipodi:nodetypes="ccccccccccccccc" />
    <path
       sodipodi:nodetypes="ccccccccc"
       inkscape:connector-curvature="0"
       id="path4587"
       d="m 158.75,114.4375 2.64583,1.32292 2.64584,-1.32292 7.9375,-23.8125 7.9375,23.8125 2.64583,1.32292 2.64584,-1.32292 -13.22917,-37.041667 z"
       style="fill:#000000;fill-opacity:1;fill-rule:evenodd;stroke:none;stroke-width:0.5;stroke-linecap:butt;stroke-linejoin:miter;stroke-miterlimit:4;stroke-dasharray:none;stroke-opacity:1" />
    <path
       style="fill:#000000;fill-opacity:1;fill-rule:evenodd;stroke:none;stroke-width:0.26458332px;stroke-linecap:butt;stroke-linejoin:miter;stroke-opacity:1"
       d="m 66.145832,77.395831 -21.166665,10e-7 -5.291667,5.291667 v 26.458331 l 5.291667,5.29167 h 15.875 l 5.291667,-5.29167 -2e-6,-15.874999 H 52.916666 l -1.322917,2.645838 1.322917,2.645828 h 7.9375 l 10e-7,7.937503 -2.645833,2.64583 H 47.625 L 44.979167,106.5 V 85.333332 l 2.645833,-2.645833 18.520832,-10e-7 1.322917,-2.645829 z"
       id="path4503"
       inkscape:connector-curvature="0"
       sodipodi:nodetypes="ccccccccccccccccccccc" />
    <path
       inkscape:connector-curvature="0"
       style="fill:#000000;fill-opacity:1;fill-rule:evenodd;stroke:none;stroke-width:0.26458332px;stroke-linecap:butt;stroke-linejoin:miter;stroke-opacity:1"
       d="m 132.29166,77.395791 v 37.041669 h 18.52084 l 5.29166,-5.29167 V 82.687458 l -5.29166,-5.291667 z m 5.29167,5.291667 h 10.58333 l 3.02359,3.779615 v 18.899107 l -3.02359,3.77961 h -10.58333 z"
       id="path4505"
       sodipodi:nodetypes="cccccccccccccc" />
    <g
       id="g4542">
      <path
         style="fill:#000000;fill-opacity:1;fill-rule:evenodd;stroke:none;stroke-width:0.5;stroke-linecap:butt;stroke-linejoin:miter;stroke-miterlimit:4;stroke-dasharray:none;stroke-opacity:1"
         d="m 10.583333,179.26042 2.645833,1.32292 2.645835,-1.32292 7.937498,-23.8125 7.937501,23.8125 2.645832,1.32292 2.645833,-1.32292 L 23.8125,143.54167 Z"
         id="path4513"
         inkscape:connector-curvature="0"
         sodipodi:nodetypes="ccccccccc" />
      <path
         sodipodi:nodetypes="ccccccc"
         inkscape:connector-curvature="0"
         id="path4515"
         d="m 70.114582,143.54167 -1.322918,2.64584 1.322918,2.64583 h 22.489585 l 1.322915,-2.64583 -1.322915,-2.64584 z"
         style="fill:#000000;fill-opacity:1;fill-rule:evenodd;stroke:none;stroke-width:0.1153846;stroke-linecap:butt;stroke-linejoin:miter;stroke-miterlimit:4;stroke-dasharray:none;stroke-opacity:1" />
      <path
         style="fill:#000000;fill-opacity:1;fill-rule:evenodd;stroke:none;stroke-width:0.1153846;stroke-linecap:butt;stroke-linejoin:miter;stroke-miterlimit:4;stroke-dasharray:none;stroke-opacity:1"
         d="m 70.114582,175.29166 -1.322918,2.64584 1.322918,2.64583 h 22.489585 l 1.322915,-2.64583 -1.322915,-2.64584 z"
         id="path4517"
         inkscape:connector-curvature="0"
         sodipodi:nodetypes="ccccccc" />
      <path
         sodipodi:nodetypes="ccccccc"
         inkscape:connector-curvature="0"
         id="path4519"
         d="m 71.437499,159.41666 -1.322918,2.64584 1.322918,2.64583 22.489585,0 1.322915,-2.64583 -1.322915,-2.64584 z"
         style="fill:#000000;fill-opacity:1;fill-rule:evenodd;stroke:none;stroke-width:0.1153846;stroke-linecap:butt;stroke-linejoin:miter;stroke-miterlimit:4;stroke-dasharray:none;stroke-opacity:1" />
      <path
         style="fill:#000000;fill-opacity:1;fill-rule:evenodd;stroke:none;stroke-width:0.26458332px;stroke-linecap:butt;stroke-linejoin:miter;stroke-opacity:1"
         d="m 97.895824,179.26041 2.645846,1.32292 2.64582,-1.32292 -1e-5,-25.13542 15.875,25.13542 2.64584,1.32292 2.64583,-1.32292 v -34.39584 l -2.64582,-1.32291 -2.64585,1.32291 v 25.13542 l -15.87499,-25.13542 -2.64582,-1.32291 -2.645846,1.32291 z"
         id="path4521"
         inkscape:connector-curvature="0"
         sodipodi:nodetypes="ccccccccccccccc" />
      <path
         sodipodi:nodetypes="ccccccccc"
         inkscape:connector-curvature="0"
         id="path4523"
         d="m 154.78124,179.26042 2.64583,1.32292 2.64584,-1.32292 7.9375,-23.8125 7.9375,23.8125 2.64583,1.32292 2.64584,-1.32292 -13.22917,-35.71874 z"
         style="fill:#000000;fill-opacity:1;fill-rule:evenodd;stroke:none;stroke-width:0.5;stroke-linecap:butt;stroke-linejoin:miter;stroke-miterlimit:4;stroke-dasharray:none;stroke-opacity:1" />
      <path
         style="fill:#000000;fill-opacity:1;fill-rule:evenodd;stroke:none;stroke-width:0.26458332px;stroke-linecap:butt;stroke-linejoin:miter;stroke-opacity:1"
         d="m 64.822916,143.54166 -19.84375,0 -5.291667,5.29167 v 26.45833 l 5.291667,5.29167 h 15.875 l 5.291667,-5.29167 -2e-6,-15.875 H 52.916665 l -1.322917,2.64584 1.322917,2.64583 h 7.9375 l 10e-7,7.9375 -2.645833,2.64583 H 47.624999 l -2.645833,-2.64583 v -21.16667 l 2.645833,-2.64583 17.197917,0 1.322917,-2.64583 z"
         id="path4525"
         inkscape:connector-curvature="0"
         sodipodi:nodetypes="ccccccccccccccccccccc" />
      <path
         inkscape:connector-curvature="0"
         style="fill:#000000;fill-opacity:1;fill-rule:evenodd;stroke:none;stroke-width:0.26458332px;stroke-linecap:butt;stroke-linejoin:miter;stroke-opacity:1"
         d="m 128.32291,143.54167 v 37.04167 h 18.52084 l 5.29166,-5.29167 v -26.45833 l -5.29166,-5.29167 z m 5.29167,5.29167 h 10.58333 l 2.64582,2.64584 v 21.16666 l -2.64582,2.64583 h -10.58333 z"
         id="path4527"
         sodipodi:nodetypes="cccccccccccccc" />
      <path
         style="fill:#000000;fill-opacity:1;fill-rule:evenodd;stroke:none;stroke-width:0.1153846;stroke-linecap:butt;stroke-linejoin:miter;stroke-miterlimit:4;stroke-dasharray:none;stroke-opacity:1"
         d="m 70.114582,159.41667 -1.322918,2.64584 1.322918,2.64583 h 22.489585 l 1.322915,-2.64583 -1.322915,-2.64584 z"
         id="path4529"
         inkscape:connector-curvature="0"
         sodipodi:nodetypes="ccccccc" />
    </g>
  </g>
</svg>
