<?xml version="1.0" encoding="UTF-8" standalone="no"?>
<!-- Created with Inkscape (http://www.inkscape.org/) -->

<svg
   xmlns:dc="http://purl.org/dc/elements/1.1/"
   xmlns:cc="http://creativecommons.org/ns#"
   xmlns:rdf="http://www.w3.org/1999/02/22-rdf-syntax-ns#"
   xmlns:svg="http://www.w3.org/2000/svg"
   xmlns="http://www.w3.org/2000/svg"
   xmlns:sodipodi="http://sodipodi.sourceforge.net/DTD/sodipodi-0.dtd"
   xmlns:inkscape="http://www.inkscape.org/namespaces/inkscape"
   width="170.65625mm"
   height="37.041679mm"
   viewBox="0 0 170.65625 37.041679"
   version="1.1"
   id="svg4568"
   inkscape:version="0.92.1 r15371"
   sodipodi:docname="agenda_logo_2.svg"
   inkscape:export-filename="G:\INEXOR\Visualisations\agenda\agenda_logo_2.png"
   inkscape:export-xdpi="74.419998"
   inkscape:export-ydpi="74.419998">
  <defs
     id="defs4562" />
  <sodipodi:namedview
     id="base"
     pagecolor="#ffffff"
     bordercolor="#666666"
     borderopacity="1.0"
     inkscape:pageopacity="0.0"
     inkscape:pageshadow="2"
     inkscape:zoom="1.4"
     inkscape:cx="321.01566"
     inkscape:cy="17.509106"
     inkscape:document-units="mm"
     inkscape:current-layer="layer1"
     showgrid="false"
     inkscape:window-width="1920"
     inkscape:window-height="1018"
     inkscape:window-x="-8"
     inkscape:window-y="-8"
     inkscape:window-maximized="1"
     fit-margin-top="0"
     fit-margin-left="0"
     fit-margin-right="0"
     fit-margin-bottom="0" />
  <metadata
     id="metadata4565">
    <rdf:RDF>
      <cc:Work
         rdf:about="">
        <dc:format>image/svg+xml</dc:format>
        <dc:type
           rdf:resource="http://purl.org/dc/dcmitype/StillImage" />
        <dc:title></dc:title>
      </cc:Work>
    </rdf:RDF>
  </metadata>
  <g
     inkscape:label="Ebene 1"
     inkscape:groupmode="layer"
     id="layer1"
     transform="translate(-11.137741,-63.571088)">
    <g
       transform="translate(0.55440806,-79.970572)"
       id="g4542">
      <path
         style="fill:#000000;fill-opacity:1;fill-rule:evenodd;stroke:none;stroke-width:0.5;stroke-linecap:butt;stroke-linejoin:miter;stroke-miterlimit:4;stroke-dasharray:none;stroke-opacity:1"
         d="m 10.583333,179.26042 2.645833,1.32292 2.645835,-1.32292 7.937498,-23.8125 7.937501,23.8125 2.645832,1.32292 2.645833,-1.32292 L 23.8125,143.54167 Z"
         id="path4513"
         inkscape:connector-curvature="0"
         sodipodi:nodetypes="ccccccccc" />
      <path
         sodipodi:nodetypes="ccccccc"
         inkscape:connector-curvature="0"
         id="path4515"
         d="m 70.114582,143.54167 -1.322918,2.64584 1.322918,2.64583 h 22.489585 l 1.322915,-2.64583 -1.322915,-2.64584 z"
         style="fill:#000000;fill-opacity:1;fill-rule:evenodd;stroke:none;stroke-width:0.1153846;stroke-linecap:butt;stroke-linejoin:miter;stroke-miterlimit:4;stroke-dasharray:none;stroke-opacity:1" />
      <path
         style="fill:#000000;fill-opacity:1;fill-rule:evenodd;stroke:none;stroke-width:0.1153846;stroke-linecap:butt;stroke-linejoin:miter;stroke-miterlimit:4;stroke-dasharray:none;stroke-opacity:1"
         d="m 70.114582,175.29166 -1.322918,2.64584 1.322918,2.64583 h 22.489585 l 1.322915,-2.64583 -1.322915,-2.64584 z"
         id="path4517"
         inkscape:connector-curvature="0"
         sodipodi:nodetypes="ccccccc" />
      <path
         sodipodi:nodetypes="ccccccc"
         inkscape:connector-curvature="0"
         id="path4519"
         d="m 71.437499,159.41666 -1.322918,2.64584 1.322918,2.64583 h 22.489585 l 1.322915,-2.64583 -1.322915,-2.64584 z"
         style="fill:#000000;fill-opacity:1;fill-rule:evenodd;stroke:none;stroke-width:0.1153846;stroke-linecap:butt;stroke-linejoin:miter;stroke-miterlimit:4;stroke-dasharray:none;stroke-opacity:1" />
      <path
         style="fill:#000000;fill-opacity:1;fill-rule:evenodd;stroke:none;stroke-width:0.26458332px;stroke-linecap:butt;stroke-linejoin:miter;stroke-opacity:1"
         d="m 97.895824,179.26041 2.645846,1.32292 2.64582,-1.32292 -1e-5,-25.13542 15.875,25.13542 2.64584,1.32292 2.64583,-1.32292 v -34.39584 l -2.64582,-1.32291 -2.64585,1.32291 v 25.13542 l -15.87499,-25.13542 -2.64582,-1.32291 -2.645846,1.32291 z"
         id="path4521"
         inkscape:connector-curvature="0"
         sodipodi:nodetypes="ccccccccccccccc" />
      <path
         sodipodi:nodetypes="ccccccccc"
         inkscape:connector-curvature="0"
         id="path4523"
         d="m 154.78124,179.26042 2.64583,1.32292 2.64584,-1.32292 7.9375,-23.8125 7.9375,23.8125 2.64583,1.32292 2.64584,-1.32292 -13.22917,-35.71874 z"
         style="fill:#000000;fill-opacity:1;fill-rule:evenodd;stroke:none;stroke-width:0.5;stroke-linecap:butt;stroke-linejoin:miter;stroke-miterlimit:4;stroke-dasharray:none;stroke-opacity:1" />
      <path
         style="fill:#000000;fill-opacity:1;fill-rule:evenodd;stroke:none;stroke-width:0.26458332px;stroke-linecap:butt;stroke-linejoin:miter;stroke-opacity:1"
         d="m 64.822916,143.54166 h -19.84375 l -5.291667,5.29167 v 26.45833 l 5.291667,5.29167 h 15.875 l 5.291667,-5.29167 -2e-6,-15.875 H 52.916665 l -1.322917,2.64584 1.322917,2.64583 h 7.9375 l 10e-7,7.9375 -2.645833,2.64583 H 47.624999 l -2.645833,-2.64583 v -21.16667 l 2.645833,-2.64583 h 17.197917 l 1.322917,-2.64583 z"
         id="path4525"
         inkscape:connector-curvature="0"
         sodipodi:nodetypes="ccccccccccccccccccccc" />
      <path
         inkscape:connector-curvature="0"
         style="fill:#000000;fill-opacity:1;fill-rule:evenodd;stroke:none;stroke-width:0.26458332px;stroke-linecap:butt;stroke-linejoin:miter;stroke-opacity:1"
         d="m 128.32291,143.54167 v 37.04167 h 18.52084 l 5.29166,-5.29167 v -26.45833 l -5.29166,-5.29167 z m 5.29167,5.29167 h 10.58333 l 2.64582,2.64584 v 21.16666 l -2.64582,2.64583 h -10.58333 z"
         id="path4527"
         sodipodi:nodetypes="cccccccccccccc" />
      <path
         style="fill:#000000;fill-opacity:1;fill-rule:evenodd;stroke:none;stroke-width:0.1153846;stroke-linecap:butt;stroke-linejoin:miter;stroke-miterlimit:4;stroke-dasharray:none;stroke-opacity:1"
         d="m 70.114582,159.41667 -1.322918,2.64584 1.322918,2.64583 h 22.489585 l 1.322915,-2.64583 -1.322915,-2.64584 z"
         id="path4529"
         inkscape:connector-curvature="0"
         sodipodi:nodetypes="ccccccc" />
    </g>
  </g>
</svg>
