<?xml version="1.0" encoding="utf-8"?>
<!-- created with bpmn-js / http://bpmn.io -->
<!DOCTYPE svg PUBLIC "-//W3C//DTD SVG 1.1//EN" "http://www.w3.org/Graphics/SVG/1.1/DTD/svg11.dtd">
<svg xmlns="http://www.w3.org/2000/svg" xmlns:xlink="http://www.w3.org/1999/xlink" width="1919" height="779" viewBox="145 -444 1919 779" version="1.1"><defs><marker id="sequenceflow-end-white-black-av15jknjgi4nnbm4mfavyfrgy" viewBox="0 0 20 20" refX="11" refY="10" markerWidth="10" markerHeight="10" orient="auto"><path d="M 1 5 L 11 10 L 1 15 Z" style="fill: black; stroke-width: 1px; stroke-linecap: round; stroke-dasharray: 10000, 1; stroke: black;"/></marker><marker id="association-end-white-black-av15jknjgi4nnbm4mfavyfrgy" viewBox="0 0 20 20" refX="12" refY="10" markerWidth="10" markerHeight="10" orient="auto"><path d="M 1 5 L 11 10 L 1 15" style="fill: none; stroke-width: 1.5px; stroke-linecap: round; stroke-dasharray: 10000, 1; stroke: black;"/></marker></defs><g class="djs-group"><g class="djs-element djs-shape" data-element-id="TextAnnotation_0apco9t" style="display: block;" transform="translate(276 268)"><g class="djs-visual"><rect x="0" y="0" width="184" height="42" rx="0" ry="0" style="stroke: none; stroke-width: 2px; fill: none;"/><path d="m 0, 0 m 10,0 l -10,0 l 0,42 l 10,0" style="fill: none; stroke-width: 2px; stroke: black;"/><text lineHeight="1.2" class="djs-label" style="font-family: Arial, sans-serif; font-size: 12px; font-weight: normal; fill: black;"><tspan x="5" y="15.799999999999999">Entweder leere Vorlage oder </tspan><tspan x="5" y="30.199999999999996">vorgefertige Vorlage</tspan></text></g><rect x="0" y="0" width="184" height="42" class="djs-hit" style="fill: none; stroke-opacity: 0; stroke: white; stroke-width: 15px;"/><rect x="-6" y="-6" width="196" height="54" class="djs-outline" style="fill: none;"/></g></g><g class="djs-group"><g class="djs-element djs-shape" data-element-id="TextAnnotation_1uy318y" style="display: block;" transform="translate(547 -60)"><g class="djs-visual"><rect x="0" y="0" width="171" height="45" rx="0" ry="0" style="stroke: none; stroke-width: 2px; fill: none;"/><path d="m 0, 0 m 10,0 l -10,0 l 0,45 l 10,0" style="fill: none; stroke-width: 2px; stroke: black;"/><text lineHeight="1.2" class="djs-label" style="font-family: Arial, sans-serif; font-size: 12px; font-weight: normal; fill: black;"><tspan x="5" y="15.799999999999999">Map modellieren, Textur </tspan><tspan x="5" y="30.199999999999996">zeichnen, Sound bearbeiten</tspan></text></g><rect x="0" y="0" width="171" height="45" class="djs-hit" style="fill: none; stroke-opacity: 0; stroke: white; stroke-width: 15px;"/><rect x="-6" y="-6" width="183" height="57" class="djs-outline" style="fill: none;"/></g></g><g class="djs-group"><g class="djs-element djs-shape" data-element-id="TextAnnotation_1bnxbr5" style="display: block;" transform="translate(1307 194)"><g class="djs-visual"><rect x="0" y="0" width="99.99156545209178" height="29.984817813765183" rx="0" ry="0" style="stroke: none; stroke-width: 2px; fill: none;"/><path d="m 0, 0 m 10,0 l -10,0 l 0,29.984817813765183 l 10,0" style="fill: none; stroke-width: 2px; stroke: black;"/><text lineHeight="1.2" class="djs-label" style="font-family: Arial, sans-serif; font-size: 12px; font-weight: normal; fill: black;"><tspan x="5" y="15.799999999999999">Echtzeitfähig?</tspan></text></g><rect x="0" y="0" width="99.99156545209178" height="29.984817813765183" class="djs-hit" style="fill: none; stroke-opacity: 0; stroke: white; stroke-width: 15px;"/><rect x="-6" y="-6" width="111.99156545209178" height="41.98481781376518" class="djs-outline" style="fill: none;"/></g></g><g class="djs-group"><g class="djs-element djs-shape" data-element-id="TextAnnotation_1w6zjtm" style="display: block;" transform="translate(945 -71)"><g class="djs-visual"><rect x="0" y="0" width="99.99274099883856" height="67.36353077816493" rx="0" ry="0" style="stroke: none; stroke-width: 2px; fill: none;"/><path d="m 0, 0 m 10,0 l -10,0 l 0,67.36353077816493 l 10,0" style="fill: none; stroke-width: 2px; stroke: black;"/><text lineHeight="1.2" class="djs-label" style="font-family: Arial, sans-serif; font-size: 12px; font-weight: normal; fill: black;"><tspan x="5" y="15.799999999999999">Technische </tspan><tspan x="5" y="30.199999999999996">Schranke beim </tspan><tspan x="5" y="44.599999999999994">Upload (z.B </tspan><tspan x="5" y="58.99999999999999">Dateiformate)</tspan></text></g><rect x="0" y="0" width="99.99274099883856" height="67.36353077816493" class="djs-hit" style="fill: none; stroke-opacity: 0; stroke: white; stroke-width: 15px;"/><rect x="-6" y="-6" width="111.99274099883856" height="79.36353077816493" class="djs-outline" style="fill: none;"/></g></g><g class="djs-group"><g class="djs-element djs-connection" data-element-id="SequenceFlow_13fih15" style="display: block;"><g class="djs-visual"><path d="m  209,120L318,120 " style="fill: none; stroke-width: 2px; stroke: black; stroke-linejoin: round; marker-end: url('#sequenceflow-end-white-black-av15jknjgi4nnbm4mfavyfrgy');"/></g><polyline points="209,120 318,120 " class="djs-hit" style="fill: none; stroke-opacity: 0; stroke: white; stroke-width: 15px;"/><rect x="203" y="114" width="121" height="12" class="djs-outline" style="fill: none;"/></g></g><g class="djs-group"><g class="djs-element djs-connection" data-element-id="SequenceFlow_1g5ev8f" style="display: block;"><g class="djs-visual"><path d="m  418,120L440,120 " style="fill: none; stroke-width: 2px; stroke: black; stroke-linejoin: round; marker-end: url('#sequenceflow-end-white-black-av15jknjgi4nnbm4mfavyfrgy');"/></g><polyline points="418,120 440,120 " class="djs-hit" style="fill: none; stroke-opacity: 0; stroke: white; stroke-width: 15px;"/><rect x="412" y="114" width="34" height="12" class="djs-outline" style="fill: none;"/></g></g><g class="djs-group"><g class="djs-element djs-connection" data-element-id="SequenceFlow_1rtceiy" style="display: block;"><g class="djs-visual"><path d="m  465,145L465,173 L583,173 " style="fill: none; stroke-width: 2px; stroke: black; stroke-linejoin: round; marker-end: url('#sequenceflow-end-white-black-av15jknjgi4nnbm4mfavyfrgy');"/></g><polyline points="465,145 465,173 583,173 " class="djs-hit" style="fill: none; stroke-opacity: 0; stroke: white; stroke-width: 15px;"/><rect x="459" y="139" width="130" height="40" class="djs-outline" style="fill: none;"/></g></g><g class="djs-group"><g class="djs-element djs-connection" data-element-id="SequenceFlow_0hc2fz2" style="display: block;"><g class="djs-visual"><path d="m  465,95L465,59 L583,59 " style="fill: none; stroke-width: 2px; stroke: black; stroke-linejoin: round; marker-end: url('#sequenceflow-end-white-black-av15jknjgi4nnbm4mfavyfrgy');"/></g><polyline points="465,95 465,59 583,59 " class="djs-hit" style="fill: none; stroke-opacity: 0; stroke: white; stroke-width: 15px;"/><rect x="459" y="53" width="130" height="48" class="djs-outline" style="fill: none;"/></g></g><g class="djs-group"><g class="djs-element djs-connection" data-element-id="SequenceFlow_0jub4ai" style="display: block;"><g class="djs-visual"><path d="m  683,59L801,59 L801,95 " style="fill: none; stroke-width: 2px; stroke: black; stroke-linejoin: round; marker-end: url('#sequenceflow-end-white-black-av15jknjgi4nnbm4mfavyfrgy');"/></g><polyline points="683,59 801,59 801,95 " class="djs-hit" style="fill: none; stroke-opacity: 0; stroke: white; stroke-width: 15px;"/><rect x="677" y="53" width="130" height="48" class="djs-outline" style="fill: none;"/></g></g><g class="djs-group"><g class="djs-element djs-connection" data-element-id="SequenceFlow_0mrcf58" style="display: block;"><g class="djs-visual"><path d="m  683,173L801,173 L801,145 " style="fill: none; stroke-width: 2px; stroke: black; stroke-linejoin: round; marker-end: url('#sequenceflow-end-white-black-av15jknjgi4nnbm4mfavyfrgy');"/></g><polyline points="683,173 801,173 801,145 " class="djs-hit" style="fill: none; stroke-opacity: 0; stroke: white; stroke-width: 15px;"/><rect x="677" y="139" width="130" height="40" class="djs-outline" style="fill: none;"/></g></g><g class="djs-group"><g class="djs-element djs-connection" data-element-id="SequenceFlow_1cbbev9" style="display: block;"><g class="djs-visual"><path d="m  1220,-231L1307,-231 " style="fill: none; stroke-width: 2px; stroke: black; stroke-linejoin: round; marker-end: url('#sequenceflow-end-white-black-av15jknjgi4nnbm4mfavyfrgy');"/></g><polyline points="1220,-231 1307,-231 " class="djs-hit" style="fill: none; stroke-opacity: 0; stroke: white; stroke-width: 15px;"/><rect x="1214" y="-237" width="99" height="12" class="djs-outline" style="fill: none;"/></g></g><g class="djs-group"><g class="djs-element djs-connection" data-element-id="SequenceFlow_07js6s4" style="display: block;"><g class="djs-visual"><path d="m  977,120L1059,120 " style="fill: none; stroke-width: 2px; stroke: black; stroke-linejoin: round; marker-end: url('#sequenceflow-end-white-black-av15jknjgi4nnbm4mfavyfrgy');"/></g><polyline points="977,120 1059,120 " class="djs-hit" style="fill: none; stroke-opacity: 0; stroke: white; stroke-width: 15px;"/><rect x="971" y="114" width="94" height="12" class="djs-outline" style="fill: none;"/></g></g><g class="djs-group"><g class="djs-element djs-connection" data-element-id="SequenceFlow_13l10p5" style="display: block;"><g class="djs-visual"><path d="m  1159,120L1307,120 " style="fill: none; stroke-width: 2px; stroke: black; stroke-linejoin: round; marker-end: url('#sequenceflow-end-white-black-av15jknjgi4nnbm4mfavyfrgy');"/></g><polyline points="1159,120 1307,120 " class="djs-hit" style="fill: none; stroke-opacity: 0; stroke: white; stroke-width: 15px;"/><rect x="1153" y="114" width="160" height="12" class="djs-outline" style="fill: none;"/></g></g><g class="djs-group"><g class="djs-element djs-connection" data-element-id="SequenceFlow_0r1jzps" style="display: block;"><g class="djs-visual"><path d="m  1538,145L1538,289 L1159,289 " style="fill: none; stroke-width: 2px; stroke: black; stroke-linejoin: round; marker-end: url('#sequenceflow-end-white-black-av15jknjgi4nnbm4mfavyfrgy');"/></g><polyline points="1538,145 1538,289 1159,289 " class="djs-hit" style="fill: none; stroke-opacity: 0; stroke: white; stroke-width: 15px;"/><rect x="1153" y="139" width="391" height="156" class="djs-outline" style="fill: none;"/></g></g><g class="djs-group"><g class="djs-element djs-connection" data-element-id="SequenceFlow_1e0ndis" style="display: block;"><g class="djs-visual"><path d="m  1059,289L952,289 L952,145 " style="fill: none; stroke-width: 2px; stroke: black; stroke-linejoin: round; marker-end: url('#sequenceflow-end-white-black-av15jknjgi4nnbm4mfavyfrgy');"/></g><polyline points="1059,289 952,289 952,145 " class="djs-hit" style="fill: none; stroke-opacity: 0; stroke: white; stroke-width: 15px;"/><rect x="946" y="139" width="119" height="156" class="djs-outline" style="fill: none;"/></g></g><g class="djs-group"><g class="djs-element djs-connection" data-element-id="SequenceFlow_05fmpy8" style="display: block;"><g class="djs-visual"><path d="m  826,120L927,120 " style="fill: none; stroke-width: 2px; stroke: black; stroke-linejoin: round; marker-end: url('#sequenceflow-end-white-black-av15jknjgi4nnbm4mfavyfrgy');"/></g><polyline points="826,120 927,120 " class="djs-hit" style="fill: none; stroke-opacity: 0; stroke: white; stroke-width: 15px;"/><rect x="820" y="114" width="113" height="12" class="djs-outline" style="fill: none;"/></g></g><g class="djs-group"><g class="djs-element djs-connection" data-element-id="SequenceFlow_061hfmz" style="display: block;"><g class="djs-visual"><path d="m  1407,-231L1520,-231 " style="fill: none; stroke-width: 2px; stroke: black; stroke-linejoin: round; marker-end: url('#sequenceflow-end-white-black-av15jknjgi4nnbm4mfavyfrgy');"/></g><polyline points="1407,-231 1520,-231 " class="djs-hit" style="fill: none; stroke-opacity: 0; stroke: white; stroke-width: 15px;"/><rect x="1401" y="-237" width="125" height="12" class="djs-outline" style="fill: none;"/></g></g><g class="djs-group"><g class="djs-element djs-connection" data-element-id="SequenceFlow_0ewaaab" style="display: block;"><g class="djs-visual"><path d="m  1407,120L1513,120 " style="fill: none; stroke-width: 2px; stroke: black; stroke-linejoin: round; marker-end: url('#sequenceflow-end-white-black-av15jknjgi4nnbm4mfavyfrgy');"/></g><polyline points="1407,120 1513,120 " class="djs-hit" style="fill: none; stroke-opacity: 0; stroke: white; stroke-width: 15px;"/><rect x="1401" y="114" width="118" height="12" class="djs-outline" style="fill: none;"/></g></g><g class="djs-group"><g class="djs-element djs-connection" data-element-id="SequenceFlow_1xelgig" style="display: block;"><g class="djs-visual"><path d="m  1563,120L1657,120 " style="fill: none; stroke-width: 2px; stroke: black; stroke-linejoin: round; marker-end: url('#sequenceflow-end-white-black-av15jknjgi4nnbm4mfavyfrgy');"/></g><polyline points="1563,120 1657,120 " class="djs-hit" style="fill: none; stroke-opacity: 0; stroke: white; stroke-width: 15px;"/><rect x="1557" y="114" width="106" height="12" class="djs-outline" style="fill: none;"/></g></g><g class="djs-group"><g class="djs-element djs-connection" data-element-id="SequenceFlow_1hr3wqp" style="display: block;"><g class="djs-visual"><path d="m  1757,120L1836,120 " style="fill: none; stroke-width: 2px; stroke: black; stroke-linejoin: round; marker-end: url('#sequenceflow-end-white-black-av15jknjgi4nnbm4mfavyfrgy');"/></g><polyline points="1757,120 1836,120 " class="djs-hit" style="fill: none; stroke-opacity: 0; stroke: white; stroke-width: 15px;"/><rect x="1751" y="114" width="91" height="12" class="djs-outline" style="fill: none;"/></g></g><g class="djs-group"><g class="djs-element djs-connection" data-element-id="SequenceFlow_154bvx3" style="display: block;"><g class="djs-visual"><path d="m  1936,120L2022,120 " style="fill: none; stroke-width: 2px; stroke: black; stroke-linejoin: round; marker-end: url('#sequenceflow-end-white-black-av15jknjgi4nnbm4mfavyfrgy');"/></g><polyline points="1936,120 2022,120 " class="djs-hit" style="fill: none; stroke-opacity: 0; stroke: white; stroke-width: 15px;"/><rect x="1930" y="114" width="98" height="12" class="djs-outline" style="fill: none;"/></g></g><g class="djs-group"><g class="djs-element djs-shape" data-element-id="StartEvent_1" style="display: block;" transform="translate(173 102)"><g class="djs-visual"><circle cx="18" cy="18" r="18" style="stroke: black; stroke-width: 2px; fill: white; fill-opacity: 0.95;"/></g><rect x="0" y="0" width="36" height="36" class="djs-hit" style="fill: none; stroke-opacity: 0; stroke: white; stroke-width: 15px;"/><rect x="-6" y="-6" width="48" height="48" class="djs-outline" style="fill: none;"/></g></g><g class="djs-group"><g class="djs-element djs-shape" data-element-id="Task_0cjnd9k" style="display: block;" transform="translate(318 80)"><g class="djs-visual"><rect x="0" y="0" width="100" height="80" rx="10" ry="10" style="stroke: black; stroke-width: 2px; fill: white; fill-opacity: 0.95;"/><text lineHeight="1.2" class="djs-label" style="font-family: Arial, sans-serif; font-size: 12px; font-weight: normal; fill: black;"><tspan x="9.140625" y="7.599999999999996">Vorlage für den</tspan><tspan x="10.3046875" y="21.999999999999993">neuen Content </tspan><tspan x="22.3203125" y="36.39999999999999">aus einem </tspan><tspan x="15.140625" y="50.79999999999999">bestehenden </tspan><tspan x="28.65625" y="65.19999999999999">Content </tspan><tspan x="21.15625" y="79.6">auswählen</tspan></text></g><rect x="0" y="0" width="100" height="80" class="djs-hit" style="fill: none; stroke-opacity: 0; stroke: white; stroke-width: 15px;"/><rect x="-6" y="-6" width="112" height="92" class="djs-outline" style="fill: none;"/></g></g><g class="djs-group"><g class="djs-element djs-shape" data-element-id="ExclusiveGateway_1abukp0" style="display: block;" transform="translate(440 95)"><g class="djs-visual"><polygon points="25,0 50,25 25,50 0,25" style="stroke: black; stroke-width: 2px; fill: white; fill-opacity: 0.95;"/><path d="m 23,10 0,12.5 -12.5,0 0,5 12.5,0 0,12.5 5,0 0,-12.5 12.5,0 0,-5 -12.5,0 0,-12.5 -5,0 z" style="fill: black; stroke-width: 1px; stroke: black;"/></g><rect x="0" y="0" width="50" height="50" class="djs-hit" style="fill: none; stroke-opacity: 0; stroke: white; stroke-width: 15px;"/><rect x="-6" y="-6" width="62" height="62" class="djs-outline" style="fill: none;"/></g></g><g class="djs-group"><g class="djs-element djs-shape" data-element-id="Task_062gukt" style="display: block;" transform="translate(583 19)"><g class="djs-visual"><rect x="0" y="0" width="100" height="80" rx="10" ry="10" style="stroke: black; stroke-width: 2px; fill: white; fill-opacity: 0.95;"/><text lineHeight="1.2" class="djs-label" style="font-family: Arial, sans-serif; font-size: 12px; font-weight: normal; fill: black;"><tspan x="10.9921875" y="43.599999999999994">Asset erstellen</tspan></text></g><rect x="0" y="0" width="100" height="80" class="djs-hit" style="fill: none; stroke-opacity: 0; stroke: white; stroke-width: 15px;"/><rect x="-6" y="-6" width="112" height="92" class="djs-outline" style="fill: none;"/></g></g><g class="djs-group"><g class="djs-element djs-shape" data-element-id="Task_13lrfzu" style="display: block;" transform="translate(583 133)"><g class="djs-visual"><rect x="0" y="0" width="100" height="80" rx="10" ry="10" style="stroke: black; stroke-width: 2px; fill: white; fill-opacity: 0.95;"/><text lineHeight="1.2" class="djs-label" style="font-family: Arial, sans-serif; font-size: 12px; font-weight: normal; fill: black;"><tspan x="9.6484375" y="14.799999999999999">Auswählen von </tspan><tspan x="7.8203125" y="29.199999999999996">Sub-Assets, die</tspan><tspan x="8.9765625" y="43.599999999999994">in dem Content </tspan><tspan x="16.4765625" y="57.99999999999999">Verwendung </tspan><tspan x="33.9921875" y="72.39999999999999">finden</tspan></text></g><rect x="0" y="0" width="100" height="80" class="djs-hit" style="fill: none; stroke-opacity: 0; stroke: white; stroke-width: 15px;"/><rect x="-6" y="-6" width="112" height="92" class="djs-outline" style="fill: none;"/></g></g><g class="djs-group"><g class="djs-element djs-shape" data-element-id="StartEvent_1dwo099" style="display: block;" transform="translate(1184 -249)"><g class="djs-visual"><circle cx="18" cy="18" r="18" style="stroke: black; stroke-width: 2px; fill: white; fill-opacity: 0.95;"/></g><rect x="0" y="0" width="36" height="36" class="djs-hit" style="fill: none; stroke-opacity: 0; stroke: white; stroke-width: 15px;"/><rect x="-6" y="-6" width="48" height="48" class="djs-outline" style="fill: none;"/></g></g><g class="djs-group"><g class="djs-element djs-shape" data-element-id="Task_0d49cc4" style="display: block;" transform="translate(1059 80)"><g class="djs-visual"><rect x="0" y="0" width="100" height="80" rx="10" ry="10" style="stroke: black; stroke-width: 2px; fill: white; fill-opacity: 0.95;"/><text lineHeight="1.2" class="djs-label" style="font-family: Arial, sans-serif; font-size: 12px; font-weight: normal; fill: black;"><tspan x="5.9765625" y="43.599999999999994">Asset hochladen</tspan></text></g><rect x="0" y="0" width="100" height="80" class="djs-hit" style="fill: none; stroke-opacity: 0; stroke: white; stroke-width: 15px;"/><rect x="-6" y="-6" width="112" height="92" class="djs-outline" style="fill: none;"/></g></g><g class="djs-group"><g class="djs-element djs-shape" data-element-id="Task_06c6y07" style="display: block;" transform="translate(1059 249)"><g class="djs-visual"><rect x="0" y="0" width="100" height="80" rx="10" ry="10" style="stroke: black; stroke-width: 2px; fill: white; fill-opacity: 0.95;"/><text lineHeight="1.2" class="djs-label" style="font-family: Arial, sans-serif; font-size: 12px; font-weight: normal; fill: black;"><tspan x="35.1640625" y="22">Asset </tspan><tspan x="12.6484375" y="36.4">überarbeiten / </tspan><tspan x="23.15625" y="50.8">Feedback </tspan><tspan x="20.1484375" y="65.19999999999999">einarbeiten</tspan></text></g><rect x="0" y="0" width="100" height="80" class="djs-hit" style="fill: none; stroke-opacity: 0; stroke: white; stroke-width: 15px;"/><rect x="-6" y="-6" width="112" height="92" class="djs-outline" style="fill: none;"/></g></g><g class="djs-group"><g class="djs-element djs-shape" data-element-id="ExclusiveGateway_0pms5xj" style="display: block;" transform="translate(927 95)"><g class="djs-visual"><polygon points="25,0 50,25 25,50 0,25" style="stroke: black; stroke-width: 2px; fill: white; fill-opacity: 0.95;"/><path d="m 16,15 7.42857142857143,9.714285714285715 -7.42857142857143,9.714285714285715 3.428571428571429,0 5.714285714285715,-7.464228571428572 5.714285714285715,7.464228571428572 3.428571428571429,0 -7.42857142857143,-9.714285714285715 7.42857142857143,-9.714285714285715 -3.428571428571429,0 -5.714285714285715,7.464228571428572 -5.714285714285715,-7.464228571428572 -3.428571428571429,0 z" style="fill: black; stroke-width: 1px; stroke: black;"/></g><rect x="0" y="0" width="50" height="50" class="djs-hit" style="fill: none; stroke-opacity: 0; stroke: white; stroke-width: 15px;"/><rect x="-6" y="-6" width="62" height="62" class="djs-outline" style="fill: none;"/></g></g><g class="djs-group"><g class="djs-element djs-shape" data-element-id="DataStoreReference_0e4xy1w" style="display: block;" transform="translate(1332 -69)"><g class="djs-visual"><path d="m  0,6.65 l  0,36.885245901639344 c  1.639344262295082,8.196721311475411 47.540983606557376,8.196721311475411  49.18032786885246,0 l  0,-36.885245901639344 c -1.639344262295082,-8.196721311475411 -47.540983606557376,-8.196721311475411 -49.18032786885246,0c  1.639344262295082,8.196721311475411 47.540983606557376,8.196721311475411  49.18032786885246,0 m  -49.18032786885246,5.737704918032787c  1.639344262295082,8.196721311475411 47.540983606557376,8.196721311475411 49.18032786885246,0m  -49.18032786885246,5.737704918032787c  1.639344262295082,8.196721311475411 47.540983606557376,8.196721311475411  49.18032786885246,0" style="fill: white; stroke-width: 2px; stroke: black; fill-opacity: 0.95;"/></g><rect x="0" y="0" width="50" height="50" class="djs-hit" style="fill: none; stroke-opacity: 0; stroke: white; stroke-width: 15px;"/><rect x="-6" y="-6" width="62" height="62" class="djs-outline" style="fill: none;"/></g></g><g class="djs-group"><g class="djs-element djs-shape" data-element-id="Task_0e3s2fl" style="display: block;" transform="translate(1307 -271)"><g class="djs-visual"><rect x="0" y="0" width="100" height="80" rx="10" ry="10" style="stroke: black; stroke-width: 2px; fill: white; fill-opacity: 0.95;"/><text lineHeight="1.2" class="djs-label" style="font-family: Arial, sans-serif; font-size: 12px; font-weight: normal; fill: black;"><tspan x="13.15625" y="29.200000000000003">Richtlinien für </tspan><tspan x="7.484375" y="43.6">Asset erstellen /</tspan><tspan x="21.484375" y="58">bearbeiten</tspan></text></g><rect x="0" y="0" width="100" height="80" class="djs-hit" style="fill: none; stroke-opacity: 0; stroke: white; stroke-width: 15px;"/><rect x="-6" y="-6" width="112" height="92" class="djs-outline" style="fill: none;"/></g></g><g class="djs-group"><g class="djs-element djs-shape" data-element-id="Task_1ci90v6" style="display: block;" transform="translate(1307 80)"><g class="djs-visual"><rect x="0" y="0" width="100" height="80" rx="10" ry="10" style="stroke: black; stroke-width: 2px; fill: white; fill-opacity: 0.95;"/><text lineHeight="1.2" class="djs-label" style="font-family: Arial, sans-serif; font-size: 12px; font-weight: normal; fill: black;"><tspan x="23.15625" y="29.200000000000003">Feedback </tspan><tspan x="23.6484375" y="43.6">einholen / </tspan><tspan x="22.1640625" y="58">Checkliste</tspan></text><path d="m 15,12 c 0.909,-0.845 1.594,-2.049 1.594,-3.385 0,-2.554 -1.805,-4.62199999 -4.357,-4.62199999 -2.55199998,0 -4.28799998,2.06799999 -4.28799998,4.62199999 0,1.348 0.974,2.562 1.89599998,3.405 -0.52899998,0.187 -5.669,2.097 -5.794,4.7560005 v 6.718 h 17 v -6.718 c 0,-2.2980005 -5.5279996,-4.5950005 -6.0509996,-4.7760005 zm -8,6 l 0,5.5 m 11,0 l 0,-5" style="fill: white; stroke-width: 0.5px; stroke: black;"/><path d="m 15,12 m 2.162,1.009 c 0,2.4470005 -2.158,4.4310005 -4.821,4.4310005 -2.66499998,0 -4.822,-1.981 -4.822,-4.4310005 " style="fill: white; stroke-width: 0.5px; stroke: black;"/><path d="m 15,12 m -6.9,-3.80 c 0,0 2.25099998,-2.358 4.27399998,-1.177 2.024,1.181 4.221,1.537 4.124,0.965 -0.098,-0.57 -0.117,-3.79099999 -4.191,-4.13599999 -3.57499998,0.001 -4.20799998,3.36699999 -4.20699998,4.34799999 z" style="fill: black; stroke-width: 0.5px; stroke: black;"/></g><rect x="0" y="0" width="100" height="80" class="djs-hit" style="fill: none; stroke-opacity: 0; stroke: white; stroke-width: 15px;"/><rect x="-6" y="-6" width="112" height="92" class="djs-outline" style="fill: none;"/></g></g><g class="djs-group"><g class="djs-element djs-shape" data-element-id="ExclusiveGateway_0n3s3xt" style="display: block;" transform="translate(1513 95)"><g class="djs-visual"><polygon points="25,0 50,25 25,50 0,25" style="stroke: black; stroke-width: 2px; fill: white; fill-opacity: 0.95;"/><path d="m 16,15 7.42857142857143,9.714285714285715 -7.42857142857143,9.714285714285715 3.428571428571429,0 5.714285714285715,-7.464228571428572 5.714285714285715,7.464228571428572 3.428571428571429,0 -7.42857142857143,-9.714285714285715 7.42857142857143,-9.714285714285715 -3.428571428571429,0 -5.714285714285715,7.464228571428572 -5.714285714285715,-7.464228571428572 -3.428571428571429,0 z" style="fill: black; stroke-width: 1px; stroke: black;"/></g><rect x="0" y="0" width="50" height="50" class="djs-hit" style="fill: none; stroke-opacity: 0; stroke: white; stroke-width: 15px;"/><rect x="-6" y="-6" width="62" height="62" class="djs-outline" style="fill: none;"/></g></g><g class="djs-group"><g class="djs-element djs-shape" data-element-id="EndEvent_04dzxfx" style="display: block;" transform="translate(1520 -249)"><g class="djs-visual"><circle cx="18" cy="18" r="18" style="stroke: black; stroke-width: 4px; fill: white; fill-opacity: 0.95;"/></g><rect x="0" y="0" width="36" height="36" class="djs-hit" style="fill: none; stroke-opacity: 0; stroke: white; stroke-width: 15px;"/><rect x="-6" y="-6" width="48" height="48" class="djs-outline" style="fill: none;"/></g></g><g class="djs-group"><g class="djs-element djs-shape" data-element-id="DataStoreReference_0hoi9e8" style="display: block;" transform="translate(1084 -414)"><g class="djs-visual"><path d="m  0,6.65 l  0,36.885245901639344 c  1.639344262295082,8.196721311475411 47.540983606557376,8.196721311475411  49.18032786885246,0 l  0,-36.885245901639344 c -1.639344262295082,-8.196721311475411 -47.540983606557376,-8.196721311475411 -49.18032786885246,0c  1.639344262295082,8.196721311475411 47.540983606557376,8.196721311475411  49.18032786885246,0 m  -49.18032786885246,5.737704918032787c  1.639344262295082,8.196721311475411 47.540983606557376,8.196721311475411 49.18032786885246,0m  -49.18032786885246,5.737704918032787c  1.639344262295082,8.196721311475411 47.540983606557376,8.196721311475411  49.18032786885246,0" style="fill: white; stroke-width: 2px; stroke: black; fill-opacity: 0.95;"/></g><rect x="0" y="0" width="50" height="50" class="djs-hit" style="fill: none; stroke-opacity: 0; stroke: white; stroke-width: 15px;"/><rect x="-6" y="-6" width="62" height="62" class="djs-outline" style="fill: none;"/></g></g><g class="djs-group"><g class="djs-element djs-shape" data-element-id="ExclusiveGateway_0nvozwd" style="display: block;" transform="translate(776 95)"><g class="djs-visual"><polygon points="25,0 50,25 25,50 0,25" style="stroke: black; stroke-width: 2px; fill: white; fill-opacity: 0.95;"/><path d="m 23,10 0,12.5 -12.5,0 0,5 12.5,0 0,12.5 5,0 0,-12.5 12.5,0 0,-5 -12.5,0 0,-12.5 -5,0 z" style="fill: black; stroke-width: 1px; stroke: black;"/></g><rect x="0" y="0" width="50" height="50" class="djs-hit" style="fill: none; stroke-opacity: 0; stroke: white; stroke-width: 15px;"/><rect x="-6" y="-6" width="62" height="62" class="djs-outline" style="fill: none;"/></g></g><g class="djs-group"><g class="djs-element djs-shape" data-element-id="DataStoreReference_07kd6ds" style="display: block;" transform="translate(1084 -62)"><g class="djs-visual"><path d="m  0,6.65 l  0,36.885245901639344 c  1.639344262295082,8.196721311475411 47.540983606557376,8.196721311475411  49.18032786885246,0 l  0,-36.885245901639344 c -1.639344262295082,-8.196721311475411 -47.540983606557376,-8.196721311475411 -49.18032786885246,0c  1.639344262295082,8.196721311475411 47.540983606557376,8.196721311475411  49.18032786885246,0 m  -49.18032786885246,5.737704918032787c  1.639344262295082,8.196721311475411 47.540983606557376,8.196721311475411 49.18032786885246,0m  -49.18032786885246,5.737704918032787c  1.639344262295082,8.196721311475411 47.540983606557376,8.196721311475411  49.18032786885246,0" style="fill: white; stroke-width: 2px; stroke: black; fill-opacity: 0.95;"/></g><rect x="0" y="0" width="50" height="50" class="djs-hit" style="fill: none; stroke-opacity: 0; stroke: white; stroke-width: 15px;"/><rect x="-6" y="-6" width="62" height="62" class="djs-outline" style="fill: none;"/></g></g><g class="djs-group"><g class="djs-element djs-shape" data-element-id="Task_1rgz5d0" style="display: block;" transform="translate(1657 80)"><g class="djs-visual"><rect x="0" y="0" width="100" height="80" rx="10" ry="10" style="stroke: black; stroke-width: 2px; fill: white; fill-opacity: 0.95;"/><text lineHeight="1.2" class="djs-label" style="font-family: Arial, sans-serif; font-size: 12px; font-weight: normal; fill: black;"><tspan x="21.4921875" y="36.4">Asset Post </tspan><tspan x="20.15625" y="50.8">Processing</tspan></text></g><rect x="0" y="0" width="100" height="80" class="djs-hit" style="fill: none; stroke-opacity: 0; stroke: white; stroke-width: 15px;"/><rect x="-6" y="-6" width="112" height="92" class="djs-outline" style="fill: none;"/></g></g><g class="djs-group"><g class="djs-element djs-shape" data-element-id="Task_1skejo2" style="display: block;" transform="translate(1836 80)"><g class="djs-visual"><rect x="0" y="0" width="100" height="80" rx="10" ry="10" style="stroke: black; stroke-width: 2px; fill: white; fill-opacity: 0.95;"/><text lineHeight="1.2" class="djs-label" style="font-family: Arial, sans-serif; font-size: 12px; font-weight: normal; fill: black;"><tspan x="35.1640625" y="36.4">Asset </tspan><tspan x="11.421875" y="50.8">veröffentlichen</tspan></text></g><rect x="0" y="0" width="100" height="80" class="djs-hit" style="fill: none; stroke-opacity: 0; stroke: white; stroke-width: 15px;"/><rect x="-6" y="-6" width="112" height="92" class="djs-outline" style="fill: none;"/></g></g><g class="djs-group"><g class="djs-element djs-shape" data-element-id="EndEvent_0m1ezua" style="display: block;" transform="translate(2022 102)"><g class="djs-visual"><circle cx="18" cy="18" r="18" style="stroke: black; stroke-width: 4px; fill: white; fill-opacity: 0.95;"/></g><rect x="0" y="0" width="36" height="36" class="djs-hit" style="fill: none; stroke-opacity: 0; stroke: white; stroke-width: 15px;"/><rect x="-6" y="-6" width="48" height="48" class="djs-outline" style="fill: none;"/></g></g><g class="djs-group"><g class="djs-element djs-connection" data-element-id="Association_1rc5rpv" style="display: block;"><g class="djs-visual"><polyline points="368,160 368,268 " style="fill: none; stroke: black; stroke-width: 2px; stroke-dasharray: 0.5, 5; stroke-linecap: round; stroke-linejoin: round;"/></g><polyline points="368,160 368,268 " class="djs-hit" style="fill: none; stroke-opacity: 0; stroke: white; stroke-width: 15px;"/><rect x="362" y="154" width="12" height="120" class="djs-outline" style="fill: none;"/></g></g><g class="djs-group"><g class="djs-element djs-shape" data-element-id="StartEvent_1_label" style="display: block;" transform="translate(151 157)"><g class="djs-visual"><text lineHeight="1.2" class="djs-label" style="font-family: Arial, sans-serif; font-size: 11px; font-weight: normal; fill: black;"><tspan x="7.953125" y="9.899999999999999">User möchte </tspan><tspan x="4.28125" y="23.099999999999998">Content (Map, </tspan><tspan x="4.46875" y="36.3">Textur, Sound, </tspan><tspan x="0" y="49.5">Model) erstellen </tspan><tspan x="29.953125" y="62.7">und </tspan><tspan x="3.953125" y="75.9">veröffentlichen</tspan></text></g><rect x="0" y="0" width="79" height="80" class="djs-hit" style="fill: none; stroke-opacity: 0; stroke: white; stroke-width: 15px;"/><rect x="-6" y="-6" width="91" height="92" class="djs-outline" style="fill: none;"/></g></g><g class="djs-group"><g class="djs-element djs-connection" data-element-id="Association_03vsxri" style="display: block;"><g class="djs-visual"><polyline points="633,19 633,-15 " style="fill: none; stroke: black; stroke-width: 2px; stroke-dasharray: 0.5, 5; stroke-linecap: round; stroke-linejoin: round;"/></g><polyline points="633,19 633,-15 " class="djs-hit" style="fill: none; stroke-opacity: 0; stroke: white; stroke-width: 15px;"/><rect x="627" y="-21" width="12" height="46" class="djs-outline" style="fill: none;"/></g></g><g class="djs-group"><g class="djs-element djs-connection" data-element-id="Association_0pquz37" style="display: block;"><g class="djs-visual"><polyline points="1080,80 1019,-4 " style="fill: none; stroke: black; stroke-width: 2px; stroke-dasharray: 0.5, 5; stroke-linecap: round; stroke-linejoin: round;"/></g><polyline points="1080,80 1019,-4 " class="djs-hit" style="fill: none; stroke-opacity: 0; stroke: white; stroke-width: 15px;"/><rect x="1013" y="-10" width="73" height="96" class="djs-outline" style="fill: none;"/></g></g><g class="djs-group"><g class="djs-element djs-connection" data-element-id="Association_1vatcwn" style="display: block;"><g class="djs-visual"><polyline points="1357,160 1357,194 " style="fill: none; stroke: black; stroke-width: 2px; stroke-dasharray: 0.5, 5; stroke-linecap: round; stroke-linejoin: round;"/></g><polyline points="1357,160 1357,194 " class="djs-hit" style="fill: none; stroke-opacity: 0; stroke: white; stroke-width: 15px;"/><rect x="1351" y="154" width="12" height="46" class="djs-outline" style="fill: none;"/></g></g><g class="djs-group"><g class="djs-element djs-connection" data-element-id="DataInputAssociation_19bntpq" style="display: block;"><g class="djs-visual"><polyline points="1084,-389 368,-389 368,80 " style="fill: none; stroke: black; stroke-width: 2px; stroke-dasharray: 0.5, 5; stroke-linecap: round; stroke-linejoin: round; marker-end: url('#association-end-white-black-av15jknjgi4nnbm4mfavyfrgy');"/></g><polyline points="1084,-389 368,-389 368,80 " class="djs-hit" style="fill: none; stroke-opacity: 0; stroke: white; stroke-width: 15px;"/><rect x="362" y="-395" width="728" height="481" class="djs-outline" style="fill: none;"/></g></g><g class="djs-group"><g class="djs-element djs-shape" data-element-id="DataStoreReference_0e4xy1w_label" style="display: block;" transform="translate(1392 -57.5)"><g class="djs-visual"><text lineHeight="1.2" class="djs-label" style="font-family: Arial, sans-serif; font-size: 11px; font-weight: normal; fill: black;"><tspan x="18.078125" y="9.899999999999999">Datenbank </tspan><tspan x="0" y="23.099999999999998">Qualitätsrichtlinien</tspan></text></g><rect x="0" y="0" width="90" height="27" class="djs-hit" style="fill: none; stroke-opacity: 0; stroke: white; stroke-width: 15px;"/><rect x="-6" y="-6" width="102" height="39" class="djs-outline" style="fill: none;"/></g></g><g class="djs-group"><g class="djs-element djs-shape" data-element-id="ExclusiveGateway_0n3s3xt_label" style="display: block;" transform="translate(1493 34)"><g class="djs-visual"><text lineHeight="1.2" class="djs-label" style="font-family: Arial, sans-serif; font-size: 11px; font-weight: normal; fill: black;"><tspan x="0" y="9.899999999999999">Erfüllt die Map die</tspan><tspan x="2.140625" y="23.099999999999998">Qualitätsrichtlinie</tspan><tspan x="37.8984375" y="36.3">n?</tspan></text></g><rect x="0" y="0" width="89" height="40" class="djs-hit" style="fill: none; stroke-opacity: 0; stroke: white; stroke-width: 15px;"/><rect x="-6" y="-6" width="101" height="52" class="djs-outline" style="fill: none;"/></g></g><g class="djs-group"><g class="djs-element djs-shape" data-element-id="SequenceFlow_0r1jzps_label" style="display: block;" transform="translate(1227 271)"><g class="djs-visual"><text lineHeight="1.2" class="djs-label" style="font-family: Arial, sans-serif; font-size: 11px; font-weight: normal; fill: black;"><tspan x="0" y="9.899999999999999">Map nicht gut</tspan></text></g><rect x="0" y="0" width="67" height="14" class="djs-hit" style="fill: none; stroke-opacity: 0; stroke: white; stroke-width: 15px;"/><rect x="-6" y="-6" width="79" height="26" class="djs-outline" style="fill: none;"/></g></g><g class="djs-group"><g class="djs-element djs-shape" data-element-id="DataStoreReference_0hoi9e8_label" style="display: block;" transform="translate(1066 -438)"><g class="djs-visual"><text lineHeight="1.2" class="djs-label" style="font-family: Arial, sans-serif; font-size: 11px; font-weight: normal; fill: black;"><tspan x="0" y="9.899999999999999">Datenbank Asset</tspan></text></g><rect x="0" y="0" width="85" height="14" class="djs-hit" style="fill: none; stroke-opacity: 0; stroke: white; stroke-width: 15px;"/><rect x="-6" y="-6" width="97" height="26" class="djs-outline" style="fill: none;"/></g></g><g class="djs-group"><g class="djs-element djs-connection" data-element-id="DataOutputAssociation_1ea52tg" style="display: block;"><g class="djs-visual"><polyline points="1357,-191 1357,-69 " style="fill: none; stroke: black; stroke-width: 2px; stroke-dasharray: 0.5, 5; stroke-linecap: round; stroke-linejoin: round; marker-end: url('#association-end-white-black-av15jknjgi4nnbm4mfavyfrgy');"/></g><polyline points="1357,-191 1357,-69 " class="djs-hit" style="fill: none; stroke-opacity: 0; stroke: white; stroke-width: 15px;"/><rect x="1351" y="-197" width="12" height="134" class="djs-outline" style="fill: none;"/></g></g><g class="djs-group"><g class="djs-element djs-connection" data-element-id="DataInputAssociation_077axeb" style="display: block;"><g class="djs-visual"><polyline points="1357,-19 1357,80 " style="fill: none; stroke: black; stroke-width: 2px; stroke-dasharray: 0.5, 5; stroke-linecap: round; stroke-linejoin: round; marker-end: url('#association-end-white-black-av15jknjgi4nnbm4mfavyfrgy');"/></g><polyline points="1357,-19 1357,80 " class="djs-hit" style="fill: none; stroke-opacity: 0; stroke: white; stroke-width: 15px;"/><rect x="1351" y="-25" width="12" height="111" class="djs-outline" style="fill: none;"/></g></g><g class="djs-group"><g class="djs-element djs-connection" data-element-id="DataOutputAssociation_0l1523l" style="display: block;"><g class="djs-visual"><polyline points="1886,80 1886,-389 1134,-389 " style="fill: none; stroke: black; stroke-width: 2px; stroke-dasharray: 0.5, 5; stroke-linecap: round; stroke-linejoin: round; marker-end: url('#association-end-white-black-av15jknjgi4nnbm4mfavyfrgy');"/></g><polyline points="1886,80 1886,-389 1134,-389 " class="djs-hit" style="fill: none; stroke-opacity: 0; stroke: white; stroke-width: 15px;"/><rect x="1128" y="-395" width="764" height="481" class="djs-outline" style="fill: none;"/></g></g><g class="djs-group"><g class="djs-element djs-connection" data-element-id="DataOutputAssociation_1xttnsf" style="display: block;"><g class="djs-visual"><polyline points="1109,80 1109,-12 " style="fill: none; stroke: black; stroke-width: 2px; stroke-dasharray: 0.5, 5; stroke-linecap: round; stroke-linejoin: round; marker-end: url('#association-end-white-black-av15jknjgi4nnbm4mfavyfrgy');"/></g><polyline points="1109,80 1109,-12 " class="djs-hit" style="fill: none; stroke-opacity: 0; stroke: white; stroke-width: 15px;"/><rect x="1103" y="-18" width="12" height="104" class="djs-outline" style="fill: none;"/></g></g><g class="djs-group"><g class="djs-element djs-shape" data-element-id="DataStoreReference_07kd6ds_label" style="display: block;" transform="translate(1070 -112)"><g class="djs-visual"><text lineHeight="1.2" class="djs-label" style="font-family: Arial, sans-serif; font-size: 11px; font-weight: normal; fill: black;"><tspan x="12.734375" y="9.899999999999999">Temporäre </tspan><tspan x="0" y="23.099999999999998">Datenbank zum </tspan><tspan x="22.3125" y="36.3">Prüfen</tspan></text></g><rect x="0" y="0" width="78" height="40" class="djs-hit" style="fill: none; stroke-opacity: 0; stroke: white; stroke-width: 15px;"/><rect x="-6" y="-6" width="90" height="52" class="djs-outline" style="fill: none;"/></g></g><g class="djs-drag-group" style="pointer-events: none;" transform="translate(120 -115)"/><g class="djs-drag-group" style="pointer-events: none;" transform="translate(-100 -39)"/><g class="djs-drag-group" style="pointer-events: none;" transform="translate(-38 -9)"/><g class="djs-drag-group" style="pointer-events: none;" transform="translate(-22 -25)"/><g class="djs-drag-group" style="pointer-events: none;" transform="translate(21 -20)"/><g class="djs-drag-group" style="pointer-events: none;" transform="translate(0 14)"/><g class="djs-drag-group" style="pointer-events: none;" transform="translate(79 0)"/><g class="djs-drag-group" style="pointer-events: none;" transform="translate(3 93)"/><g class="djs-drag-group" style="pointer-events: none;" transform="translate(95 814)"/><g class="djs-drag-group" style="pointer-events: none;" transform="translate(59 -254)"/><g class="djs-drag-group" style="pointer-events: none;" transform="translate(102 -254)"/><g class="djs-drag-group" style="pointer-events: none;" transform="translate(0 -254)"/><g class="djs-drag-group" style="pointer-events: none;" transform="translate(383 0)"/><g class="djs-drag-group" style="pointer-events: none;" transform="translate(-170 0)"/><g class="djs-drag-group" style="pointer-events: none;" transform="translate(266 0)"/><g class="djs-drag-group" style="pointer-events: none;" transform="translate(-576 29)"/><g class="djs-drag-group" style="pointer-events: none;" transform="translate(33 0)"/><g class="djs-drag-group" style="pointer-events: none;" transform="translate(-150 -327)"/><g class="djs-drag-group" style="pointer-events: none;" transform="translate(-68 225)"/><g class="djs-drag-group" style="pointer-events: none;" transform="translate(-32 -23)"/><g class="djs-drag-group" style="pointer-events: none;" transform="translate(170 0)"/><g class="djs-drag-group" style="pointer-events: none;" transform="translate(-100 192)"/><g class="djs-drag-group" style="pointer-events: none;" transform="translate(-52 25)"/><g class="djs-drag-group" style="pointer-events: none;" transform="translate(-100 197)"/><g class="djs-drag-group" style="pointer-events: none;" transform="translate(-125 193)"/><g class="djs-drag-group" style="pointer-events: none;" transform="translate(-4 28)"/><g class="djs-drag-group" style="pointer-events: none;" transform="translate(0 -45)"/><g class="djs-drag-group" style="pointer-events: none;" transform="translate(-44 0)"/><g class="djs-drag-group" style="pointer-events: none;" transform="translate(-92 0)"/><g class="djs-drag-group" style="pointer-events: none;" transform="translate(-105 0)"/><g class="djs-drag-group" style="pointer-events: none;" transform="translate(-93 0)"/><g class="djs-drag-group" style="pointer-events: none;" transform="translate(-105 0)"/><g class="djs-drag-group" style="pointer-events: none;" transform="translate(0 -1)"/><g class="djs-drag-group" style="pointer-events: none;" transform="translate(22 0)"/><g class="djs-drag-group" style="pointer-events: none;" transform="translate(-207 0)"/><g class="djs-drag-group" style="pointer-events: none;" transform="translate(-5 -10)"/><g class="djs-drag-group" style="pointer-events: none;" transform="translate(-70 50)"/><g class="djs-drag-group" style="pointer-events: none;" transform="translate(-125 0)"/><g class="djs-drag-group" style="pointer-events: none;" transform="translate(-871 377)"/><g class="djs-drag-group" style="pointer-events: none;" transform="translate(-73 22)"/><g class="djs-drag-group" style="pointer-events: none;" transform="translate(998 0)"/><g class="djs-drag-group" style="pointer-events: none;" transform="translate(943 0)"/><g class="djs-drag-group" style="pointer-events: none;" transform="translate(944 0)"/><g class="djs-drag-group" style="pointer-events: none;" transform="translate(-2 3)"/><g class="djs-drag-group" style="pointer-events: none;" transform="translate(0 9)"/><g class="djs-drag-group" style="pointer-events: none;" transform="translate(161 -1040)"/><g class="djs-drag-group" style="pointer-events: none;" transform="translate(47 119)"/><g class="djs-drag-group" style="pointer-events: none;" transform="translate(-24 139)"/><g class="djs-drag-group" style="pointer-events: none;" transform="translate(50 0)"/><g class="djs-drag-group" style="pointer-events: none;" transform="translate(111 119)"/><g class="djs-drag-group" style="pointer-events: none;" transform="translate(0 -399)"/><g class="djs-drag-group" style="pointer-events: none;" transform="translate(-155 119)"/><g class="djs-drag-group" style="pointer-events: none;" transform="translate(25 0)"/><g class="djs-drag-group" style="pointer-events: none;" transform="translate(114 -143)"/><g class="djs-drag-group" style="pointer-events: none;" transform="translate(-172 0)"/><g class="djs-drag-group" style="pointer-events: none;" transform="translate(5 69)"/><g class="djs-drag-group" style="pointer-events: none;" transform="translate(-25 74)"/><g class="djs-drag-group" style="pointer-events: none;" transform="translate(-172 0)"/><g class="djs-drag-group" style="pointer-events: none;" transform="translate(0 0)"/><g class="djs-drag-group" style="pointer-events: none;" transform="translate(58 0)"/><g class="djs-drag-group" style="pointer-events: none;" transform="translate(66 0)"/><g class="djs-drag-group" style="pointer-events: none;" transform="translate(56 0)"/><g class="djs-drag-group" style="pointer-events: none;" transform="translate(188 0)"/><g class="djs-drag-group" style="pointer-events: none;" transform="translate(97 0)"/><g class="djs-drag-group" style="pointer-events: none;" transform="translate(163 0)"/><g class="djs-drag-group" style="pointer-events: none;" transform="translate(13 0)"/><g class="djs-drag-group" style="pointer-events: none;" transform="translate(151 -304)"/><g class="djs-drag-group" style="pointer-events: none;" transform="translate(-48 0)"/><g class="djs-drag-group" style="pointer-events: none;" transform="translate(-100 -72)"/><g class="djs-drag-group" style="pointer-events: none;" transform="translate(-916 -345)"/><g class="djs-drag-group" style="pointer-events: none;" transform="translate(0 333)"/><g class="djs-drag-group" style="pointer-events: none;" transform="translate(-100 194)"/><g class="djs-drag-group" style="pointer-events: none;" transform="translate(28 135)"/><g class="djs-drag-group" style="pointer-events: none;" transform="translate(-145 -61)"/><g class="djs-drag-group" style="pointer-events: none;" transform="translate(0 -82)"/><g class="djs-drag-group" style="pointer-events: none;" transform="translate(-145 7)"/><g class="djs-drag-group" style="pointer-events: none;" transform="translate(19 -11)"/><g class="djs-drag-group" style="pointer-events: none;" transform="translate(-198 -105)"/><g class="djs-drag-group" style="pointer-events: none;" transform="translate(130 18)"/><g class="djs-drag-group" style="pointer-events: none;" transform="translate(84 105)"/></svg>