<?xml version="1.0" encoding="UTF-8"?><svg xmlns="http://www.w3.org/2000/svg" xmlns:xlink="http://www.w3.org/1999/xlink" fill-opacity="1" color-rendering="auto" color-interpolation="auto" text-rendering="auto" stroke="black" stroke-linecap="square" width="496" stroke-miterlimit="10" shape-rendering="auto" stroke-opacity="1" fill="black" stroke-dasharray="none" font-weight="normal" stroke-width="1" height="1287" font-family="'Dialog'" font-style="normal" stroke-linejoin="miter" font-size="12" stroke-dashoffset="0" image-rendering="auto">
  <!--Generated by ySVG 2.5-->
  <defs id="genericDefs"/>
  <g>
    <defs id="defs1">
      <clipPath clipPathUnits="userSpaceOnUse" id="clipPath1">
        <path d="M0 0 L496 0 L496 1287 L0 1287 L0 0 Z"/>
      </clipPath>
      <clipPath clipPathUnits="userSpaceOnUse" id="clipPath2">
        <path d="M232 -98 L728 -98 L728 1189 L232 1189 L232 -98 Z"/>
      </clipPath>
    </defs>
    <g fill="rgb(255,204,0)" text-rendering="geometricPrecision" shape-rendering="geometricPrecision" transform="matrix(1,0,0,1,-232,98)" stroke="rgb(255,204,0)">
      <ellipse rx="85" ry="78.5" clip-path="url(#clipPath2)" cx="486" cy="-4.5" stroke="none"/>
    </g>
    <g text-rendering="geometricPrecision" stroke-miterlimit="1.45" shape-rendering="geometricPrecision" font-family="sans-serif" transform="matrix(1,0,0,1,-232,98)" stroke-linecap="butt">
      <text x="451.6494" xml:space="preserve" y="0.2139" clip-path="url(#clipPath2)" stroke="none">Pull-Request</text>
      <ellipse rx="85" fill="none" ry="78.5" clip-path="url(#clipPath2)" cx="486" cy="-4.5"/>
    </g>
    <g fill="rgb(255,204,0)" text-rendering="geometricPrecision" shape-rendering="geometricPrecision" transform="matrix(1,0,0,1,-232,98)" stroke="rgb(255,204,0)">
      <ellipse rx="85" ry="78.5" clip-path="url(#clipPath2)" cx="486" cy="270.5" stroke="none"/>
    </g>
    <g text-rendering="geometricPrecision" stroke-miterlimit="1.45" shape-rendering="geometricPrecision" font-family="sans-serif" transform="matrix(1,0,0,1,-232,98)" stroke-linecap="butt">
      <text x="442.6465" xml:space="preserve" y="275.2139" clip-path="url(#clipPath2)" stroke="none">PR gets merged</text>
      <ellipse rx="85" fill="none" ry="78.5" clip-path="url(#clipPath2)" cx="486" cy="270.5"/>
    </g>
    <g fill="rgb(255,204,0)" text-rendering="geometricPrecision" shape-rendering="geometricPrecision" transform="matrix(1,0,0,1,-232,98)" stroke="rgb(255,204,0)">
      <ellipse rx="85" ry="78.5" clip-path="url(#clipPath2)" cx="486" cy="545.5" stroke="none"/>
    </g>
    <g text-rendering="geometricPrecision" stroke-miterlimit="1.45" shape-rendering="geometricPrecision" font-family="sans-serif" transform="matrix(1,0,0,1,-232,98)" stroke-linecap="butt">
      <text x="417.6357" xml:space="preserve" y="550.2139" clip-path="url(#clipPath2)" stroke="none">Travis tags a new release</text>
      <ellipse rx="85" fill="none" ry="78.5" clip-path="url(#clipPath2)" cx="486" cy="545.5"/>
    </g>
    <g fill="rgb(255,204,0)" text-rendering="geometricPrecision" shape-rendering="geometricPrecision" transform="matrix(1,0,0,1,-232,98)" stroke="rgb(255,204,0)">
      <ellipse rx="85" ry="78.5" clip-path="url(#clipPath2)" cx="486" cy="820.5" stroke="none"/>
    </g>
    <g text-rendering="geometricPrecision" stroke-miterlimit="1.45" shape-rendering="geometricPrecision" font-family="sans-serif" transform="matrix(1,0,0,1,-232,98)" stroke-linecap="butt">
      <text x="423.3076" xml:space="preserve" y="817.8633" clip-path="url(#clipPath2)" stroke="none">AppVeyor/Travis create</text>
      <text x="418.2979" xml:space="preserve" y="832.5645" clip-path="url(#clipPath2)" stroke="none">Windows/Linux packages</text>
      <ellipse rx="85" fill="none" ry="78.5" clip-path="url(#clipPath2)" cx="486" cy="820.5"/>
    </g>
    <g fill="rgb(255,204,0)" text-rendering="geometricPrecision" shape-rendering="geometricPrecision" transform="matrix(1,0,0,1,-232,98)" stroke="rgb(255,204,0)">
      <ellipse rx="85" ry="78.5" clip-path="url(#clipPath2)" cx="332.5625" cy="1095.5" stroke="none"/>
    </g>
    <g text-rendering="geometricPrecision" stroke-miterlimit="1.45" shape-rendering="geometricPrecision" font-family="sans-serif" transform="matrix(1,0,0,1,-232,98)" stroke-linecap="butt">
      <text x="258.8574" xml:space="preserve" y="1092.8633" clip-path="url(#clipPath2)" stroke="none">AppVeyor/Travis push each</text>
      <text x="258.5205" xml:space="preserve" y="1107.5645" clip-path="url(#clipPath2)" stroke="none">package to GitHub/releases</text>
      <ellipse rx="85" fill="none" ry="78.5" clip-path="url(#clipPath2)" cx="332.5625" cy="1095.5"/>
    </g>
    <g fill="rgb(255,204,0)" text-rendering="geometricPrecision" shape-rendering="geometricPrecision" transform="matrix(1,0,0,1,-232,98)" stroke="rgb(255,204,0)">
      <ellipse rx="85" ry="78.5" clip-path="url(#clipPath2)" cx="627.125" cy="1095.5" stroke="none"/>
    </g>
    <g text-rendering="geometricPrecision" stroke-miterlimit="1.45" shape-rendering="geometricPrecision" font-family="sans-serif" transform="matrix(1,0,0,1,-232,98)" stroke-linecap="butt">
      <text x="553.4287" xml:space="preserve" y="1100.2139" clip-path="url(#clipPath2)" stroke="none">AppVeyor/Travis notify npm</text>
      <ellipse rx="85" fill="none" ry="78.5" clip-path="url(#clipPath2)" cx="627.125" cy="1095.5"/>
      <path fill="none" d="M486 74 L486 184" clip-path="url(#clipPath2)"/>
      <path d="M486 192 L491 180 L486 183 L481 180 Z" clip-path="url(#clipPath2)" stroke="none"/>
      <text x="375.2891" xml:space="preserve" y="137.7139" clip-path="url(#clipPath2)" stroke="none">Quality checks pass</text>
      <path fill="none" d="M486 349 L486 459" clip-path="url(#clipPath2)"/>
      <path d="M486 467 L491 455 L486 458 L481 455 Z" clip-path="url(#clipPath2)" stroke="none"/>
      <text x="364.6367" xml:space="preserve" y="405.3633" clip-path="url(#clipPath2)" stroke="none">new commit to master</text>
      <text x="386.4131" xml:space="preserve" y="420.0645" clip-path="url(#clipPath2)" stroke="none">→ Travis runs</text>
      <path fill="none" d="M486 624 L486 734" clip-path="url(#clipPath2)"/>
      <path d="M486 742 L491 730 L486 733 L481 730 Z" clip-path="url(#clipPath2)" stroke="none"/>
      <text x="387.3857" xml:space="preserve" y="680.3633" clip-path="url(#clipPath2)" stroke="none">new tag</text>
      <text x="334.8008" xml:space="preserve" y="695.0645" clip-path="url(#clipPath2)" stroke="none">→ Travis and AppVeyor run</text>
      <path fill="none" d="M447.0656 890.2806 L375.3949 1018.7332" clip-path="url(#clipPath2)"/>
      <path d="M371.4969 1025.7194 L381.7102 1017.6764 L375.8821 1017.86 L372.9775 1012.804 Z" clip-path="url(#clipPath2)" stroke="none"/>
      <path fill="none" d="M522.4033 891.4365 L587.0692 1017.446" clip-path="url(#clipPath2)"/>
      <path d="M590.7217 1024.5636 L589.6913 1011.6045 L586.6126 1016.5564 L580.7944 1016.1701 Z" clip-path="url(#clipPath2)" stroke="none"/>
    </g>
  </g>
</svg>
