<?xml version="1.0" encoding="UTF-8" standalone="no"?>
<!-- Created with Inkscape (http://www.inkscape.org/) -->

<svg
   xmlns:dc="http://purl.org/dc/elements/1.1/"
   xmlns:cc="http://creativecommons.org/ns#"
   xmlns:rdf="http://www.w3.org/1999/02/22-rdf-syntax-ns#"
   xmlns:svg="http://www.w3.org/2000/svg"
   xmlns="http://www.w3.org/2000/svg"
   xmlns:sodipodi="http://sodipodi.sourceforge.net/DTD/sodipodi-0.dtd"
   xmlns:inkscape="http://www.inkscape.org/namespaces/inkscape"
   width="1280mm"
   height="800mm"
   viewBox="0 0 1280 800"
   version="1.1"
   id="svg4568"
   inkscape:version="0.92.1 r15371"
   sodipodi:docname="vape_logo_2.svg"
   inkscape:export-filename="G:\INEXOR\Visualisations\agenda\agenda_logo_2.png"
   inkscape:export-xdpi="68.571404"
   inkscape:export-ydpi="68.571404">
  <defs
     id="defs4562" />
  <sodipodi:namedview
     id="base"
     pagecolor="#ffffff"
     bordercolor="#666666"
     borderopacity="1.0"
     inkscape:pageopacity="0.0"
     inkscape:pageshadow="2"
     inkscape:zoom="0.1767767"
     inkscape:cx="3436.2268"
     inkscape:cy="1327.7418"
     inkscape:document-units="mm"
     inkscape:current-layer="layer1"
     showgrid="true"
     inkscape:window-width="1920"
     inkscape:window-height="1018"
     inkscape:window-x="-8"
     inkscape:window-y="-8"
     inkscape:window-maximized="1"
     fit-margin-top="0"
     fit-margin-left="0"
     fit-margin-right="0"
     fit-margin-bottom="0">
    <inkscape:grid
       type="xygrid"
       id="grid4492"
       spacingx="3.9687499"
       spacingy="3.9687499"
       originx="3e-006"
       originy="1.2617675e-005" />
  </sodipodi:namedview>
  <metadata
     id="metadata4565">
    <rdf:RDF>
      <cc:Work
         rdf:about="">
        <dc:format>image/svg+xml</dc:format>
        <dc:type
           rdf:resource="http://purl.org/dc/dcmitype/StillImage" />
        <dc:title></dc:title>
      </cc:Work>
    </rdf:RDF>
  </metadata>
  <g
     inkscape:label="Ebene 1"
     inkscape:groupmode="layer"
     id="layer1"
     transform="translate(-11.137738,699.38722)">
    <g
       id="g5396"
       transform="translate(601.92707,-416.71874)">
      <path
         sodipodi:nodetypes="ccccccc"
         style="fill:#000000;fill-opacity:1;fill-rule:evenodd;stroke:none;stroke-width:0.26458332px;stroke-linecap:butt;stroke-linejoin:miter;stroke-opacity:1"
         d="m 308.79399,-236.73095 -39.6875,119.0625 -39.6875,-119.0625 h -19.84375 l 59.53124,178.593727 59.53125,-178.593727 z"
         id="path4672"
         inkscape:connector-curvature="0" />
      <path
         inkscape:connector-curvature="0"
         id="path4674"
         d="m 308.79398,-58.137223 39.6875,-119.062497 39.6875,119.062497 h 19.84375 L 348.48149,-236.73095 288.95024,-58.137223 Z"
         style="fill:#000000;fill-opacity:1;fill-rule:evenodd;stroke:none;stroke-width:0.26458332px;stroke-linecap:butt;stroke-linejoin:miter;stroke-opacity:1"
         sodipodi:nodetypes="ccccccc" />
      <path
         inkscape:connector-curvature="0"
         id="rect4681"
         d="m 368.32523,-236.73097 59.53125,178.593747 h 19.84375 l -9.92187,-29.765624 -16.53646,-49.609373 h 33.07291 19.84375 l 33.07292,-99.21875 h -19.84375 -99.21875 z m 26.45833,19.84375 h 85.98959 l -19.84375,59.53125 h -46.30209 z"
         style="color:#000000;display:inline;overflow:visible;visibility:visible;opacity:1;fill:#000000;fill-opacity:1;fill-rule:evenodd;stroke:none;stroke-width:0.169;stroke-linecap:butt;stroke-linejoin:miter;stroke-miterlimit:4;stroke-dasharray:none;stroke-dashoffset:0;stroke-opacity:1;marker:none;paint-order:stroke fill markers;enable-background:accumulate" />
      <path
         inkscape:connector-curvature="0"
         id="path4698-5"
         d="m 527.07523,-236.73097 -59.53125,178.593747 h 19.84375 99.21875 l 6.61459,-19.84375 h -99.21875 l 19.84375,-59.531247 h 99.21875 l 6.61458,-19.84375 h -99.21875 l 19.84375,-59.53125 h 99.21875 l 6.61458,-19.84375 h -99.21875 z"
         style="color:#000000;display:inline;overflow:visible;visibility:visible;opacity:1;fill:#000000;fill-opacity:1;fill-rule:evenodd;stroke:none;stroke-width:0.169;stroke-linecap:butt;stroke-linejoin:miter;stroke-miterlimit:4;stroke-dasharray:none;stroke-dashoffset:0;stroke-opacity:1;marker:none;paint-order:stroke fill markers;enable-background:accumulate" />
    </g>
    <g
       transform="translate(615.15623,-218.28099)"
       id="g4747">
      <path
         sodipodi:nodetypes="ccccccc"
         style="fill:#000000;fill-opacity:1;fill-rule:evenodd;stroke:none;stroke-width:0.26458332px;stroke-linecap:butt;stroke-linejoin:miter;stroke-opacity:1"
         d="m 269.10649,-236.73097 -39.6875,119.0625 -39.6875,-119.0625 h -19.84375 l 59.53124,178.593729 59.53125,-178.593729 z"
         id="path4672-9"
         inkscape:connector-curvature="0" />
      <path
         inkscape:connector-curvature="0"
         id="path4674-4"
         d="m 288.95023,-58.137223 39.6875,-119.062497 39.6875,119.062497 h 19.84375 L 328.63774,-236.73095 269.10649,-58.137223 Z"
         style="fill:#000000;fill-opacity:1;fill-rule:evenodd;stroke:none;stroke-width:0.26458332px;stroke-linecap:butt;stroke-linejoin:miter;stroke-opacity:1"
         sodipodi:nodetypes="ccccccc" />
      <path
         inkscape:connector-curvature="0"
         transform="matrix(0.26458333,0,0,0.26458333,11.137738,-699.38722)"
         id="rect4681-0"
         d="m 1325,1748.6211 225,675 h 75 l -37.5,-112.5 -87.5,-262.5 h 175 75 l 100,-300 h -75 -375 z m 100,75 h 325 l -50,150 h -225 z"
         style="color:#000000;display:inline;overflow:visible;visibility:visible;opacity:1;fill:#000000;fill-opacity:1;fill-rule:evenodd;stroke:none;stroke-width:0.63874018;stroke-linecap:butt;stroke-linejoin:miter;stroke-miterlimit:4;stroke-dasharray:none;stroke-dashoffset:0;stroke-opacity:1;marker:none;paint-order:stroke fill markers;enable-background:accumulate" />
      <path
         inkscape:connector-curvature="0"
         transform="matrix(0.26458333,0,0,0.26458333,11.137738,-699.38722)"
         id="path4698"
         d="m 1950,1748.6211 -225,675 h 75 375 l 25,-75 h -375 l 75,-225 h 375 l 25,-75 h -375 l 75,-225 h 375 l 25,-75 h -375 z"
         style="color:#000000;display:inline;overflow:visible;visibility:visible;opacity:1;fill:#000000;fill-opacity:1;fill-rule:evenodd;stroke:none;stroke-width:0.63874018;stroke-linecap:butt;stroke-linejoin:miter;stroke-miterlimit:4;stroke-dasharray:none;stroke-dashoffset:0;stroke-opacity:1;marker:none;paint-order:stroke fill markers;enable-background:accumulate" />
    </g>
    <path
       inkscape:connector-curvature="0"
       id="path5430"
       d="m 545.63438,-668.78812 -66.14584,185.2083 v 92.60416 l 66.14584,-185.20833 z"
       style="fill:#000000;fill-opacity:1;fill-rule:evenodd;stroke:none;stroke-width:0.26458332px;stroke-linecap:butt;stroke-linejoin:miter;stroke-opacity:1" />
    <path
       style="fill:#000000;fill-opacity:1;fill-rule:evenodd;stroke:none;stroke-width:0.26458332px;stroke-linecap:butt;stroke-linejoin:miter;stroke-opacity:1"
       d="m 328.63773,-296.26222 -196.66527,-0.41144 -22.18667,30.96364 131.57776,0.41144 z"
       id="path5709"
       inkscape:connector-curvature="0"
       sodipodi:nodetypes="ccccc" />
    <path
       style="fill:#000000;fill-opacity:1;fill-rule:evenodd;stroke:none;stroke-width:0.26458332px;stroke-linecap:butt;stroke-linejoin:miter;stroke-opacity:1"
       d="m 44.21066,-197.04349 66.14583,185.20833 66.14583,-185.20833 v 92.60418 L 110.35649,80.76902 44.21066,-104.43931 Z"
       id="path4658"
       inkscape:connector-curvature="0"
       sodipodi:nodetypes="ccccccc" />
    <path
       sodipodi:nodetypes="ccccccc"
       inkscape:connector-curvature="0"
       id="path4662"
       d="M 328.63771,80.769 262.49188,-104.43932 196.34607,80.769 v -92.60418 l 66.14581,-185.20832 66.14583,185.20832 z"
       style="fill:#000000;fill-opacity:1;fill-rule:evenodd;stroke:none;stroke-width:0.26458332px;stroke-linecap:butt;stroke-linejoin:miter;stroke-opacity:1" />
    <path
       style="fill:#000000;fill-opacity:1;fill-rule:evenodd;stroke:none;stroke-width:0.26458332px;stroke-linecap:butt;stroke-linejoin:miter;stroke-opacity:1"
       d="m 606.31741,-196.67142 -66.01302,184.836781 -0.13282,0.371052 v 0.001 l -32.94009,92.231579 h 33.07291 88.22717 l 86.22678,-30.591416 -163.39365,-0.377243 41.66362,-116.657991 86.08777,0.368459 87.27424,-30.9635 -162.29033,-0.406162 2.21742,-6.208919 22.00177,-61.60556 88.71241,0.37674 87.27426,-30.9635 -164.91553,-0.41135 z"
       id="path5718"
       inkscape:connector-curvature="0"
       sodipodi:nodetypes="ccccccccccccccccccc" />
    <path
       style="color:#000000;display:inline;overflow:visible;visibility:visible;opacity:1;fill:#000000;fill-opacity:1;fill-rule:evenodd;stroke:none;stroke-width:0.09490625;stroke-linecap:butt;stroke-linejoin:miter;stroke-miterlimit:4;stroke-dasharray:none;stroke-dashoffset:0;stroke-opacity:1;marker:none;paint-order:stroke fill markers;enable-background:accumulate"
       d="M 421.24189,-197.04298 355.09606,-11.83516 V 80.769 l 52.57819,-147.2184 h 89.29687 v 5.1e-4 h 33.0724 l 30.10462,-84.29202 16.53646,-46.30207 h -33.07292 -29.76562 -59.53125 z m 21.8674,31.37483 h 89.29688 l -24.23005,67.84391 h -89.29687 l 2.36264,-6.61509 z"
       id="rect5739"
       inkscape:connector-curvature="0" />
  </g>
</svg>
